<svg xmlns="http://www.w3.org/2000/svg" viewBox="0 0 841.9 595.3">

    <symbol viewBox="0 0 19 19" id="phone">
        <svg width="19" height="19" viewBox="0 0 19 19"  >
          <path d="M6.12334 1H3.42857C2.08731 1 1 2.08731 1 3.42857V5.85714C1 12.5635 6.43654 18 13.1429 18H15.5714C16.9127 18 18 16.9127 18 15.5714V13.8933C18 13.4334 17.7401 13.0129 17.3288 12.8072L14.3951 11.3404C13.7342 11.01 12.9338 11.3415 12.7001 12.0425L12.3385 13.1272C12.1043 13.8299 11.3836 14.2481 10.6573 14.1029C7.75057 13.5215 5.47846 11.2494 4.89711 8.34268C4.75186 7.61643 5.17013 6.89567 5.87276 6.66146L7.21895 6.21273C7.8209 6.01208 8.16688 5.38181 8.01299 4.76625L7.30137 1.91978C7.16623 1.37922 6.68054 1 6.12334 1Z" stroke="white"/>
        </svg>
    </symbol>

    <symbol viewBox="0 0 29 18" id="delivary">
        <svg width="29" height="18" viewBox="0 0 29 18"  xmlns="http://www.w3.org/2000/svg">
          <path d="M7.85418 14.9584H5.43751C5.10401 14.9584 4.83334 14.6877 4.83334 14.3542C4.83334 14.0207 5.10401 13.75 5.43751 13.75H7.85418C8.18768 13.75 8.45834 14.0207 8.45834 14.3542C8.45834 14.6877 8.18768 14.9584 7.85418 14.9584Z" fill="white"/>
          <path d="M27.4896 14.9584H25.9792C25.6457 14.9584 25.375 14.6877 25.375 14.3542C25.375 14.0207 25.6457 13.75 25.9792 13.75H26.9881L27.8026 9.40971C27.7917 7.18879 25.8946 5.29171 23.5625 5.29171H19.5956L17.6731 13.75H21.1459C21.4794 13.75 21.75 14.0207 21.75 14.3542C21.75 14.6877 21.4794 14.9584 21.1459 14.9584H16.9167C16.733 14.9584 16.559 14.875 16.4442 14.7312C16.3294 14.5886 16.2859 14.4001 16.327 14.2213L18.5238 4.55462C18.5866 4.27792 18.8307 4.08337 19.1134 4.08337H23.5625C26.5604 4.08337 29 6.523 29 9.52087L28.0829 14.4654C28.0297 14.7517 27.7808 14.9584 27.4896 14.9584Z" fill="white"/>
          <path d="M23.5625 17.375C21.8974 17.375 20.5417 16.0205 20.5417 14.3542C20.5417 12.6879 21.8974 11.3334 23.5625 11.3334C25.2276 11.3334 26.5833 12.6879 26.5833 14.3542C26.5833 16.0205 25.2276 17.375 23.5625 17.375ZM23.5625 12.5417C22.5632 12.5417 21.75 13.3549 21.75 14.3542C21.75 15.3535 22.5632 16.1667 23.5625 16.1667C24.5618 16.1667 25.375 15.3535 25.375 14.3542C25.375 13.3549 24.5618 12.5417 23.5625 12.5417Z" fill="white"/>
          <path d="M10.2708 17.375C8.60576 17.375 7.25001 16.0205 7.25001 14.3542C7.25001 12.6879 8.60576 11.3334 10.2708 11.3334C11.9359 11.3334 13.2917 12.6879 13.2917 14.3542C13.2917 16.0205 11.9359 17.375 10.2708 17.375ZM10.2708 12.5417C9.27155 12.5417 8.45834 13.3549 8.45834 14.3542C8.45834 15.3535 9.27155 16.1667 10.2708 16.1667C11.2701 16.1667 12.0833 15.3535 12.0833 14.3542C12.0833 13.3549 11.2701 12.5417 10.2708 12.5417Z" fill="white"/>
          <path d="M7.85417 4.08337H3.02084C2.68734 4.08337 2.41667 3.81271 2.41667 3.47921C2.41667 3.14571 2.68734 2.87504 3.02084 2.87504H7.85417C8.18767 2.87504 8.45834 3.14571 8.45834 3.47921C8.45834 3.81271 8.18767 4.08337 7.85417 4.08337Z" fill="white"/>
          <path d="M7.85418 7.70837H1.81251C1.47901 7.70837 1.20834 7.43771 1.20834 7.10421C1.20834 6.77071 1.47901 6.50004 1.81251 6.50004H7.85418C8.18768 6.50004 8.45834 6.77071 8.45834 7.10421C8.45834 7.43771 8.18768 7.70837 7.85418 7.70837Z" fill="white"/>
          <path d="M7.85417 11.3334H0.604167C0.270667 11.3334 0 11.0627 0 10.7292C0 10.3957 0.270667 10.125 0.604167 10.125H7.85417C8.18767 10.125 8.45833 10.3957 8.45833 10.7292C8.45833 11.0627 8.18767 11.3334 7.85417 11.3334Z" fill="white"/>
          <path d="M16.9167 14.9584L12.6875 14.9584C12.354 14.9584 12.0833 14.6877 12.0833 14.3542C12.0833 14.0207 12.354 13.75 12.6875 13.75H16.4346L19.1799 1.66671H5.43751C5.10401 1.66671 4.83334 1.39604 4.83334 1.06254C4.83334 0.729041 5.10401 0.458374 5.43751 0.458374H19.9375C20.1212 0.458374 20.2952 0.541749 20.41 0.685541C20.5248 0.828124 20.5683 1.01662 20.5272 1.19546L17.5063 14.4871C17.4435 14.7638 17.1982 14.9584 16.9167 14.9584Z" fill="white"/>
        </svg>
      </symbol>

    <symbol viewBox="0 0 23 23" id="ckitchen">
      <svg width="23" height="23" viewBox="0 0 23 23"  xmlns="http://www.w3.org/2000/svg">
        <path d="M11.5 0V12.9375H0V23H23V0H11.5ZM11.5 21.5625H1.4375V14.375H11.5V21.5625ZM21.5625 21.5625H12.9375V7.1875H21.5625V21.5625ZM21.5625 5.75H12.9375V1.4375H21.5625V5.75Z"/>
        <path d="M10.0625 4.73369L8.625 3.29619V0H7.1875V3.89131L8.625 5.32881V5.75H2.875V5.32881L4.3125 3.89131V0H2.875V3.29619L1.4375 4.73369V7.1875H10.0625V4.73369Z"/>
        <path d="M8.625 15.8125H4.3125V17.25H8.625V15.8125Z"/>
        <path d="M15.8125 2.875H14.375V4.3125H15.8125V2.875Z"/>
        <path d="M15.8125 10.0625H14.375V14.375H15.8125V10.0625Z"/>
        <path d="M2.875 8.625H1.4375V10.0625H2.875V8.625Z"/>
        <path d="M6.46875 8.625H5.03125V10.0625H6.46875V8.625Z"/>
        <path d="M10.0625 8.625H8.625V10.0625H10.0625V8.625Z"/>
      </svg>
    </symbol>

    <symbol viewBox="0 0 28 23" id="badroom">
      <svg width="28" height="23" viewBox="0 0 28 23"  xmlns="http://www.w3.org/2000/svg">
        <path d="M28 12.6475C28 11.7213 27.4932 10.8869 26.6773 10.4697C25.8454 10.0442 24.7681 9.82849 23.4756 9.82849H9.42501C9.32384 9.32362 9.09967 8.8649 8.7634 8.49111L6.77086 6.2761C6.2778 5.72797 5.56927 5.39514 4.77586 5.33903L4.41793 5.31371C4.23467 5.30053 4.04846 5.3264 3.86974 5.38634V4.21542C3.86974 3.80527 3.69698 3.43487 3.42081 3.17242C3.70087 2.83675 3.86974 2.40516 3.86974 1.93484C3.86974 0.867945 3.00174 0 1.9349 0C0.868055 0 0 0.868 0 1.9349C0 2.40527 0.168875 2.8368 0.44893 3.17248C0.172758 3.43498 0 3.80532 0 4.21548V21.6712C0 21.9732 0.244836 22.2181 0.546875 22.2181H2.43441C2.71649 22.2181 2.9523 22.0036 2.97888 21.7227C3.04402 21.034 3.40818 19.1427 4.31041 18.2946H5.77478C6.07682 18.2946 6.32166 18.0497 6.32166 17.7477C6.32166 17.4457 6.07682 17.2008 5.77478 17.2008L1.0937 17.2008V12.3863L8.39316 12.3861V13.8112C8.39316 14.6544 9.07911 15.3404 9.92234 15.3404H26.4709C26.6177 15.3404 26.7655 15.3191 26.9062 15.2773V17.2008H23.8926C23.8921 17.2008 23.8917 17.2009 23.8912 17.2009H10.5867C10.2847 17.2009 10.0399 17.4457 10.0399 17.7477C10.0399 18.0497 10.2847 18.2946 10.5867 18.2946H23.6896C24.5883 19.1404 24.9548 21.0335 25.0212 21.7227C25.0478 22.0036 25.2835 22.2182 25.5656 22.2182H27.4531C27.7552 22.2182 28 21.9733 28 21.6713V12.6475ZM3.87105 7.17445C3.8792 6.94143 3.84727 6.70064 4.03927 6.5293C4.23243 6.35693 4.46414 6.41342 4.69864 6.43005C5.21533 6.46663 5.6507 6.6663 5.95766 7.0076L7.9502 9.22266C8.27318 9.58163 8.42811 10.082 8.38638 10.6315C8.37036 10.843 8.37419 11.0305 8.19591 11.1798C8.03299 11.3162 7.85619 11.2907 7.66008 11.2849C7.10927 11.2684 6.62807 11.0615 6.30509 10.7025L4.31255 8.4875C3.99027 8.12913 3.85443 7.65023 3.87105 7.17445ZM1.09375 11.2925V4.21548C1.09375 4.02484 1.24884 3.86974 1.43948 3.86974H2.43015C2.62079 3.86974 2.77588 4.02484 2.77588 4.21548V11.2924L1.09375 11.2925ZM3.86969 9.63047L5.36473 11.2925H3.86969V9.63047ZM1.93484 1.0938C2.39859 1.0938 2.77594 1.47109 2.77594 1.9349C2.77594 2.3987 2.39865 2.77599 1.93484 2.77599C1.47104 2.77599 1.09375 2.3987 1.09375 1.9349C1.09375 1.47109 1.47104 1.0938 1.93484 1.0938ZM1.95792 21.1244H1.09375V18.2947H2.92753C2.3357 19.2635 2.06806 20.4619 1.95792 21.1244ZM9.92239 14.2467C9.68237 14.2467 9.48708 14.0514 9.48708 13.8114L9.48686 10.9222H23.4756C24.5933 10.9222 25.503 11.0976 26.1793 11.4435C26.6277 11.6727 26.9062 12.1341 26.9062 12.6475V13.8093C26.9062 13.81 26.9061 13.8107 26.9061 13.8114C26.9061 14.0515 26.7108 14.2467 26.4708 14.2467L9.92239 14.2467ZM26.0421 21.1244C25.9319 20.4619 25.6643 19.2635 25.0725 18.2947H26.9062V21.1244H26.0421Z"/>
        <path d="M8.68597 17.5387C8.57282 17.2629 8.24628 17.1294 7.97175 17.2429C7.69623 17.3567 7.56186 17.6817 7.67588 17.9571C7.78985 18.2323 8.11486 18.367 8.39011 18.2529C8.66481 18.1391 8.80032 17.8134 8.68597 17.5387Z"/>
      </svg>
    </symbol>

    <symbol viewBox="0 0 30 23" id="livingroom">
      <svg width="30" height="23" viewBox="0 0 30 23"  xmlns="http://www.w3.org/2000/svg">
        <path d="M29.5312 15.9375H28.125V13.125H29.0625C29.3214 13.1249 29.5311 12.9149 29.531 12.656C29.531 12.6304 29.5289 12.6047 29.5247 12.5794L29.0559 9.76688C29.0184 9.54082 28.8229 9.37512 28.5938 9.375H26.7188C26.4896 9.37512 26.2941 9.54082 26.2566 9.76688L25.7878 12.5794C25.7453 12.8347 25.9179 13.0762 26.1734 13.1187C26.1987 13.1229 26.2243 13.125 26.25 13.125H27.1875V15.9375H25.3125C25.2967 15.9397 25.281 15.9428 25.2656 15.9469C25.0455 14.8525 24.0851 14.0644 22.9688 14.0625H22.0312V12.6562C22.0312 11.8796 21.4017 11.25 20.625 11.25H16.875C16.0983 11.25 15.4688 11.8796 15.4688 12.6562V14.0625H14.5312V12.6562C14.5312 11.8796 13.9017 11.25 13.125 11.25H9.375C8.59834 11.25 7.96875 11.8796 7.96875 12.6562V14.0625H7.03125C5.91492 14.0644 4.95445 14.8525 4.73438 15.9469C4.71897 15.9428 4.70332 15.9397 4.6875 15.9375H2.8125V13.125H3.75C4.00887 13.1249 4.21863 12.9149 4.21852 12.656C4.21852 12.6304 4.21641 12.6047 4.21219 12.5794L3.74344 9.76688C3.70588 9.54082 3.51041 9.37512 3.28125 9.375H1.40625C1.17709 9.37512 0.981621 9.54082 0.944062 9.76688L0.475313 12.5794C0.432832 12.8347 0.605449 13.0762 0.860859 13.1187C0.886172 13.1229 0.911836 13.125 0.9375 13.125H1.875V15.9375H0.46875C0.209883 15.9375 0 16.1474 0 16.4062V21.5625C0 21.8214 0.209883 22.0312 0.46875 22.0312H29.5312C29.7901 22.0312 30 21.8214 30 21.5625V16.4062C30 16.1474 29.7901 15.9375 29.5312 15.9375ZM1.49109 12.1875L1.80328 10.3125H2.88422L3.19641 12.1875H1.49109ZM4.21875 21.0938H0.9375V16.875H4.21875V21.0938ZM16.4062 12.6562C16.4062 12.3974 16.6161 12.1875 16.875 12.1875H20.625C20.8839 12.1875 21.0938 12.3974 21.0938 12.6562V14.0625H16.4062V12.6562ZM8.90625 12.6562C8.90625 12.3974 9.11613 12.1875 9.375 12.1875H13.125C13.3839 12.1875 13.5938 12.3974 13.5938 12.6562V14.0625H8.90625V12.6562ZM24.375 21.0938H5.625V19.6875H24.375V21.0938ZM24.375 18.75H5.625V16.4062C5.625 15.6296 6.25459 15 7.03125 15H22.9688C23.7454 15 24.375 15.6296 24.375 16.4062V18.75ZM26.8036 12.1875L27.1158 10.3125H28.1967L28.5089 12.1875H26.8036ZM29.0625 21.0938H25.7812V16.875H29.0625V21.0938Z"/>
        <path d="M9.375 8.4375H19.6875C19.9464 8.4375 20.1562 8.22762 20.1562 7.96875V0.46875C20.1562 0.209883 19.9464 0 19.6875 0H9.375C9.11613 0 8.90625 0.209883 8.90625 0.46875V7.96875C8.90625 8.22762 9.11613 8.4375 9.375 8.4375ZM9.84375 0.9375H19.2188V5.69438L18.1786 4.39453C18.0954 4.29029 17.9719 4.22637 17.8387 4.21875C17.7058 4.21289 17.5764 4.26223 17.4811 4.35516L15.9375 5.89969L12.9877 2.94984C12.8145 2.77693 12.5374 2.76633 12.3516 2.92547L9.84375 5.07516V0.9375ZM9.84375 6.30891L12.6314 3.91828L15.6061 6.8925C15.7891 7.07549 16.0859 7.07549 16.2689 6.8925L17.7736 5.38781L19.2188 7.19625V7.5H9.84375V6.30891Z"/>
        <path d="M16.4062 4.21875C17.1829 4.21875 17.8125 3.58916 17.8125 2.8125C17.8125 2.03584 17.1829 1.40625 16.4062 1.40625C15.6296 1.40625 15 2.03584 15 2.8125C15 3.58916 15.6296 4.21875 16.4062 4.21875ZM16.4062 2.34375C16.6651 2.34375 16.875 2.55363 16.875 2.8125C16.875 3.07137 16.6651 3.28125 16.4062 3.28125C16.1474 3.28125 15.9375 3.07137 15.9375 2.8125C15.9375 2.55363 16.1474 2.34375 16.4062 2.34375Z"/>
      </svg>
    </symbol>

    <symbol viewBox="0 0 22 22" id="closet">
      <svg width="22" height="22" viewBox="0 0 22 22"  xmlns="http://www.w3.org/2000/svg">
        <path d="M21.2695 0H0.644531C0.288578 0 0 0.288578 0 0.644531C0 1.00048 0.288578 1.28906 0.644531 1.28906H0.6875V21.3555C0.6875 21.7114 0.976078 22 1.33203 22C1.68798 22 1.97656 21.7114 1.97656 21.3555V20.9688H19.9375V21.3555C19.9375 21.7114 20.2261 22 20.582 22C20.938 22 21.2266 21.7114 21.2266 21.3555V1.28906H21.2695C21.6255 1.28906 21.9141 1.00048 21.9141 0.644531C21.9141 0.288578 21.6255 0 21.2695 0ZM11.6016 13.3633H19.9375V15.8555H11.6016V13.3633ZM19.9375 12.0742H11.6016V9.58203H19.9375V12.0742ZM10.3125 19.6797H6.78906V1.28906H10.3125V19.6797ZM1.97656 1.28906H5.5V19.6797H1.97656V1.28906ZM11.6016 19.6797V17.1445H19.9375V19.6797H11.6016ZM19.9375 8.29297H11.6016V1.28906H19.9375V8.29297Z" />
        <path d="M8.55078 11.6445C8.90675 11.6445 9.19531 11.356 9.19531 11C9.19531 10.644 8.90675 10.3555 8.55078 10.3555C8.19482 10.3555 7.90625 10.644 7.90625 11C7.90625 11.356 8.19482 11.6445 8.55078 11.6445Z" />
        <path d="M3.73828 11.6446C4.09425 11.6446 4.38281 11.356 4.38281 11C4.38281 10.6441 4.09425 10.3555 3.73828 10.3555C3.38232 10.3555 3.09375 10.6441 3.09375 11C3.09375 11.356 3.38232 11.6446 3.73828 11.6446Z" />
      </svg>
    </symbol>

    <symbol  viewBox="0 0 23 22" id="office">
      <svg width="23" height="22" viewBox="0 0 23 22" xmlns="http://www.w3.org/2000/svg">
        <path d="M22.3125 10.3984H21.3211C21.5413 10.0189 21.668 9.57881 21.668 9.10938V7.17578C21.668 6.81983 21.3794 6.53125 21.0234 6.53125H19.8029C20.1742 4.80137 21.9349 3.85352 21.9653 3.8375C22.2804 3.67366 22.4037 3.28552 22.2405 2.96978C22.0771 2.65353 21.6883 2.52961 21.372 2.69302C21.3088 2.72577 20.4899 3.15842 19.7344 3.99536V1.97656C19.7344 1.62061 19.4458 1.33203 19.0898 1.33203C18.7339 1.33203 18.4453 1.62061 18.4453 1.97656V3.99536C17.6898 3.15842 16.8709 2.72577 16.8076 2.69302C16.4913 2.52953 16.1025 2.65358 15.9391 2.96978C15.7757 3.28604 15.8996 3.67486 16.2158 3.83823C16.2358 3.84854 18.0075 4.78427 18.3777 6.53125H17.1562C16.8003 6.53125 16.5117 6.81983 16.5117 7.17578V9.10938C16.5117 9.57881 16.6384 10.0189 16.8586 10.3984H11.0663L10.4218 9.10938H13.2891C13.645 9.10938 13.9336 8.8208 13.9336 8.46484V0.644531C13.9336 0.288578 13.645 0 13.2891 0H2.89062C2.53467 0 2.24609 0.288578 2.24609 0.644531V8.46484C2.24609 8.8208 2.53467 9.10938 2.89062 9.10938H5.75793L5.1134 10.3984H1.60156C1.24561 10.3984 0.957031 10.687 0.957031 11.043C0.957031 11.3989 1.24561 11.6875 1.60156 11.6875H2.24609V21.3555C2.24609 21.7114 2.53467 22 2.89062 22C3.24658 22 3.53516 21.7114 3.53516 21.3555V19.4219H12.6445V21.3555C12.6445 21.7114 12.9331 22 13.2891 22H21.0234C21.3794 22 21.668 21.7114 21.668 21.3555V11.6875H22.3125C22.6685 11.6875 22.957 11.3989 22.957 11.043C22.957 10.687 22.6685 10.3984 22.3125 10.3984ZM17.8008 9.10938V7.82031H20.3789V9.10938C20.3789 9.82016 19.8006 10.3984 19.0898 10.3984C18.3791 10.3984 17.8008 9.82016 17.8008 9.10938ZM3.53516 1.28906H12.6445V7.82031H3.53516V1.28906ZM7.1991 9.10938H8.98059L9.62512 10.3984H6.55457L7.1991 9.10938ZM3.53516 18.1328V11.6875H12.6445V18.1328H3.53516ZM13.9336 16.8438H20.3789V20.7109H13.9336V16.8438ZM20.3789 15.5547H13.9336V11.6875H20.3789V15.5547Z" />
        <path d="M17.1562 14.2656C17.5122 14.2656 17.8008 13.9771 17.8008 13.6211C17.8008 13.2651 17.5122 12.9766 17.1562 12.9766C16.8003 12.9766 16.5117 13.2651 16.5117 13.6211C16.5117 13.9771 16.8003 14.2656 17.1562 14.2656Z" />
        <path d="M17.1562 19.4219C17.5122 19.4219 17.8008 19.1333 17.8008 18.7773C17.8008 18.4214 17.5122 18.1328 17.1562 18.1328C16.8003 18.1328 16.5117 18.4214 16.5117 18.7773C16.5117 19.1333 16.8003 19.4219 17.1562 19.4219Z" />
      </svg>
    </symbol>

    <symbol viewBox="0 0 23 22" id="childrensroom">
      <svg width="23" height="22" viewBox="0 0 23 22"  xmlns="http://www.w3.org/2000/svg">
        <path d="M22.7717 18.3255C22.5233 18.0729 22.1181 18.0685 21.8641 18.3145C21.8641 18.3145 21.8632 18.3149 21.862 18.3161L21.8602 18.3143L21.8639 18.3107C21.8617 18.3127 21.7854 18.3842 21.6246 18.501V8.46145C21.6246 8.1055 21.3361 7.81693 20.9801 7.81693C20.6242 7.81693 20.3356 8.1055 20.3356 8.46145V9.09862C18.0346 9.04633 16.8496 8.71517 15.7014 8.39386C14.6413 8.09717 13.64 7.81693 11.9568 7.81693C10.2736 7.81693 9.27226 8.09717 8.21219 8.39386C7.064 8.71522 5.87907 9.04637 3.57804 9.09862V5.88336C3.57804 3.57057 4.63222 1.99566 6.54641 1.44872C8.32412 0.940834 10.1995 1.67812 11.1667 3.2132C10.9322 3.32904 10.7334 3.45331 10.5707 3.58582L9.8345 2.84952C9.58283 2.59781 9.17472 2.59781 8.92301 2.84952C8.67131 3.10123 8.67131 3.50929 8.92301 3.761L9.75634 4.59432L8.92301 5.42765C8.67131 5.67935 8.67131 6.08742 8.92301 6.33913C9.17468 6.59079 9.58279 6.59083 9.8345 6.33913L10.5708 5.60287C10.7934 5.78419 11.0834 5.95022 11.4403 6.10014C12.0498 6.35601 12.7753 6.52797 13.2459 6.52797C14.3121 6.52797 15.1795 5.66057 15.1795 4.59441C15.1795 3.52824 14.3121 2.66085 13.2459 2.66085C13.0134 2.66085 12.7187 2.70291 12.4065 2.77626C11.1887 0.591332 8.62073 -0.484503 6.19235 0.20926C3.71176 0.918018 2.28904 2.98616 2.28904 5.88336V18.501C2.12826 18.3841 2.05194 18.3127 2.0498 18.3106L2.05349 18.3142L2.05173 18.316C2.05139 18.3157 2.04984 18.3142 2.04984 18.3142C1.79581 18.0683 1.39045 18.0728 1.14205 18.3254C0.892451 18.5792 0.895802 18.9872 1.14961 19.2369C1.20565 19.2926 1.93679 19.9887 3.64086 20.6654C5.34485 21.3427 8.01845 22.0002 11.9569 22C15.8953 22.0002 18.5689 21.3427 20.2729 20.6654C21.9769 19.9887 22.7081 19.2926 22.7641 19.2369C23.0179 18.9873 23.0213 18.5792 22.7717 18.3255ZM12.1081 4.21045C12.5686 4.03935 13.0291 3.9498 13.2459 3.9498C13.6013 3.9498 13.8904 4.23893 13.8904 4.59432C13.8904 4.94971 13.6013 5.23884 13.2459 5.23884C13.0291 5.23884 12.5686 5.1493 12.1081 4.9782C11.7087 4.82974 11.4836 4.68541 11.3749 4.59432C11.4836 4.50323 11.7087 4.3589 12.1081 4.21045ZM3.57809 10.3878C6.06435 10.333 7.38484 9.964 8.55963 9.63516C9.57432 9.35119 10.4506 9.10597 11.9569 9.10597C13.4631 9.10597 14.3394 9.35123 15.3541 9.63516C16.5289 9.96396 17.8494 10.333 20.3356 10.3878V16.8402H3.57809V10.3878ZM3.57809 18.1293H20.3356V19.2335C17.8845 20.3596 14.6765 20.7073 11.9569 20.7073C9.23741 20.7073 6.02933 20.3597 3.57809 19.2335V18.1293Z" />
        <path d="M6.8002 15.5512C7.15615 15.5512 7.44473 15.2626 7.44473 14.9067V12.3286C7.44473 11.9726 7.15615 11.6841 6.8002 11.6841C6.44426 11.6841 6.15568 11.9726 6.15568 12.3286V14.9067C6.15568 15.2626 6.44426 15.5512 6.8002 15.5512Z" />
        <path d="M9.37827 15.5512C9.73422 15.5512 10.0228 15.2626 10.0228 14.9067V12.3286C10.0228 11.9726 9.73422 11.6841 9.37827 11.6841C9.02232 11.6841 8.73375 11.9726 8.73375 12.3286V14.9067C8.73375 15.2626 9.02232 15.5512 9.37827 15.5512Z" />
        <path d="M11.9564 15.5512C12.3123 15.5512 12.6009 15.2626 12.6009 14.9067V12.3286C12.6009 11.9726 12.3123 11.6841 11.9564 11.6841C11.6004 11.6841 11.3118 11.9726 11.3118 12.3286V14.9067C11.3118 15.2626 11.6004 15.5512 11.9564 15.5512Z" />
        <path d="M14.5345 15.5512C14.8904 15.5512 15.179 15.2626 15.179 14.9067V12.3286C15.179 11.9726 14.8904 11.6841 14.5345 11.6841C14.1785 11.6841 13.8899 11.9726 13.8899 12.3286V14.9067C13.8899 15.2626 14.1785 15.5512 14.5345 15.5512Z" />
        <path d="M17.1125 15.5512C17.4685 15.5512 17.757 15.2626 17.757 14.9067V12.3286C17.757 11.9726 17.4685 11.6841 17.1125 11.6841C16.7566 11.6841 16.468 11.9726 16.468 12.3286V14.9067C16.468 15.2626 16.7566 15.5512 17.1125 15.5512Z" />
      </svg>
    </symbol>

    <symbol viewBox="0 0 16 17" id="like">
      <svg viewBox="0 0 19 17"  xmlns="http://www.w3.org/2000/svg">
        <path d="M9.75 16L9.39645 16.3536C9.59171 16.5488 9.90829 16.5488 10.1036 16.3536L9.75 16ZM2.29442 8.54442L1.94086 8.89797H1.94086L2.29442 8.54442ZM8.54442 2.29442L8.19086 2.64797V2.64797L8.54442 2.29442ZM9.75 3.5L9.39645 3.85355C9.59171 4.04882 9.90829 4.04882 10.1036 3.85355L9.75 3.5ZM10.9556 2.29442L10.602 1.94086V1.94086L10.9556 2.29442ZM10.1036 15.6464L2.64797 8.19086L1.94086 8.89797L9.39645 16.3536L10.1036 15.6464ZM16.852 8.19086L9.39645 15.6464L10.1036 16.3536L17.5591 8.89797L16.852 8.19086ZM8.19086 2.64797L9.39645 3.85355L10.1036 3.14645L8.89797 1.94086L8.19086 2.64797ZM10.1036 3.85355L11.3091 2.64797L10.602 1.94086L9.39645 3.14645L10.1036 3.85355ZM14.0806 0.5C12.7759 0.5 11.5246 1.01829 10.602 1.94086L11.3091 2.64797C12.0442 1.91294 13.0411 1.5 14.0806 1.5V0.5ZM18 5.41942C18 6.45891 17.5871 7.45583 16.852 8.19086L17.5591 8.89797C18.4817 7.9754 19 6.72413 19 5.41942H18ZM19 5.41942C19 2.7025 16.7975 0.5 14.0806 0.5V1.5C16.2452 1.5 18 3.25478 18 5.41942H19ZM5.41942 1.5C6.45891 1.5 7.45583 1.91294 8.19086 2.64797L8.89797 1.94086C7.9754 1.01829 6.72413 0.5 5.41942 0.5V1.5ZM1.5 5.41942C1.5 3.25478 3.25478 1.5 5.41942 1.5V0.5C2.7025 0.5 0.5 2.7025 0.5 5.41942H1.5ZM2.64797 8.19086C1.91294 7.45583 1.5 6.45891 1.5 5.41942H0.5C0.5 6.72413 1.01829 7.9754 1.94086 8.89797L2.64797 8.19086Z"/>
      </svg>
    </symbol>
      
    <symbol id="logo" viewBox="0 0 113 25" xmlns="http://www.w3.org/2000/svg">
        <svg width="113" height="25" viewBox="0 0 113 25"  xmlns="http://www.w3.org/2000/svg">
        <path d="M0.49936 21.3204C0.366197 21.3204 0.246351 21.2737 0.139821 21.1804C0.0466069 21.0737 0 20.9537 0 20.8204V7.82176C0 7.67511 0.0466069 7.55512 0.139821 7.4618C0.246351 7.36847 0.366197 7.32181 0.49936 7.32181H2.65659C2.97618 7.32181 3.20922 7.46846 3.3557 7.76176L6.87119 14.0611L10.3867 7.76176C10.5332 7.46846 10.7662 7.32181 11.0858 7.32181H13.223C13.3695 7.32181 13.4894 7.36847 13.5826 7.4618C13.6891 7.55512 13.7424 7.67511 13.7424 7.82176V20.8204C13.7424 20.9671 13.6891 21.0871 13.5826 21.1804C13.4894 21.2737 13.3695 21.3204 13.223 21.3204H10.8461C10.6996 21.3204 10.5731 21.2737 10.4666 21.1804C10.3734 21.0871 10.3268 20.9671 10.3268 20.8204V13.3212L8.08963 17.5008C7.91652 17.8074 7.68348 17.9607 7.39052 17.9607H6.35185C6.17874 17.9607 6.03892 17.9207 5.93239 17.8407C5.82586 17.7607 5.73265 17.6474 5.65275 17.5008L3.39565 13.3212V20.8204C3.39565 20.9537 3.34904 21.0737 3.25583 21.1804C3.16261 21.2737 3.04276 21.3204 2.89629 21.3204H0.49936Z" fill="#2E2E2E"/>
        <path d="M23.3326 21.3204C23.1994 21.3204 23.0796 21.2737 22.973 21.1804C22.8798 21.0737 22.8332 20.9537 22.8332 20.8204V7.82176C22.8332 7.67511 22.8798 7.55512 22.973 7.4618C23.0796 7.36847 23.1994 7.32181 23.3326 7.32181H32.6606C32.8071 7.32181 32.9269 7.36847 33.0202 7.4618C33.1134 7.55512 33.16 7.67511 33.16 7.82176V9.70157C33.16 9.83489 33.1134 9.95487 33.0202 10.0615C32.9269 10.1549 32.8071 10.2015 32.6606 10.2015H26.2888V12.9012H32.2212C32.3677 12.9012 32.4875 12.9546 32.5807 13.0612C32.6739 13.1545 32.7205 13.2745 32.7205 13.4212V15.161C32.7205 15.2943 32.6739 15.4143 32.5807 15.521C32.4875 15.6143 32.3677 15.661 32.2212 15.661H26.2888V18.4407H32.8204C32.9669 18.4407 33.0867 18.4873 33.18 18.5807C33.2732 18.674 33.3198 18.794 33.3198 18.9406V20.8204C33.3198 20.9537 33.2732 21.0737 33.18 21.1804C33.0867 21.2737 32.9669 21.3204 32.8204 21.3204H23.3326Z" fill="#2E2E2E"/>
        <path d="M42.3816 21.3204C42.2484 21.3204 42.1286 21.2737 42.0221 21.1804C41.9288 21.0737 41.8822 20.9537 41.8822 20.8204V7.82176C41.8822 7.67511 41.9288 7.55512 42.0221 7.4618C42.1286 7.36847 42.2484 7.32181 42.3816 7.32181H51.9693C52.1158 7.32181 52.2356 7.36847 52.3288 7.4618C52.422 7.55512 52.4687 7.67511 52.4687 7.82176V9.82155C52.4687 9.96821 52.422 10.0949 52.3288 10.2015C52.2356 10.2948 52.1158 10.3415 51.9693 10.3415H45.4776V12.7013H48.2541C49.852 12.7013 51.1104 13.0812 52.0292 13.8411C52.948 14.6011 53.4075 15.641 53.4075 16.9608C53.4075 17.7874 53.2077 18.534 52.8082 19.2006C52.4087 19.8539 51.8228 20.3738 51.0505 20.7604C50.2781 21.1337 49.346 21.3204 48.2541 21.3204H42.3816ZM47.9345 18.7206C48.4804 18.7206 48.9066 18.5473 49.2128 18.2007C49.5324 17.8541 49.6922 17.4341 49.6922 16.9408C49.6922 16.4475 49.5391 16.0409 49.2328 15.721C48.9265 15.401 48.4938 15.241 47.9345 15.241H45.4776V18.7206H47.9345Z" fill="#2E2E2E"/>
        <path d="M61.8012 21.3204C61.6681 21.3204 61.5482 21.2737 61.4417 21.1804C61.3485 21.0737 61.3019 20.9537 61.3019 20.8204V7.82176C61.3019 7.67511 61.3485 7.55512 61.4417 7.4618C61.5482 7.36847 61.6681 7.32181 61.8012 7.32181H71.1293C71.2757 7.32181 71.3956 7.36847 71.4888 7.4618C71.582 7.55512 71.6286 7.67511 71.6286 7.82176V9.70157C71.6286 9.83489 71.582 9.95487 71.4888 10.0615C71.3956 10.1549 71.2757 10.2015 71.1293 10.2015H64.7574V12.9012H70.6898C70.8363 12.9012 70.9561 12.9546 71.0494 13.0612C71.1426 13.1545 71.1892 13.2745 71.1892 13.4212V15.161C71.1892 15.2943 71.1426 15.4143 71.0494 15.521C70.9561 15.6143 70.8363 15.661 70.6898 15.661H64.7574V18.4407H71.2891C71.4355 18.4407 71.5554 18.4873 71.6486 18.5807C71.7418 18.674 71.7884 18.794 71.7884 18.9406V20.8204C71.7884 20.9537 71.7418 21.0737 71.6486 21.1804C71.5554 21.2737 71.4355 21.3204 71.2891 21.3204H61.8012Z" fill="#2E2E2E"/>
        <path d="M89.7189 21.3204C89.5857 21.3204 89.4659 21.2737 89.3593 21.1804C89.2661 21.0737 89.2195 20.9537 89.2195 20.8204V10.5215H85.5043V12.3413C85.5043 14.5944 85.3578 16.3542 85.0648 17.6208C84.7719 18.874 84.2326 19.8005 83.4469 20.4005C82.6746 20.9871 81.5493 21.2937 80.0712 21.3204C79.9248 21.3204 79.7982 21.2737 79.6917 21.1804C79.5852 21.0737 79.5319 20.9471 79.5319 20.8004V18.7006C79.5319 18.4207 79.6984 18.2474 80.0313 18.1807C80.7504 18.0607 81.263 17.4741 81.5693 16.4209C81.8756 15.3543 82.0287 13.8411 82.0287 11.8813V7.82176C82.0287 7.67511 82.0753 7.55512 82.1685 7.4618C82.2751 7.36847 82.4016 7.32181 82.548 7.32181H92.2956C92.442 7.32181 92.5619 7.36847 92.6551 7.4618C92.7616 7.55512 92.8149 7.67511 92.8149 7.82176V20.8204C92.8149 20.9671 92.7616 21.0871 92.6551 21.1804C92.5619 21.2737 92.442 21.3204 92.2956 21.3204H89.7189Z" fill="#2E2E2E"/>
        <path d="M102.377 21.3204C102.243 21.3204 102.124 21.2737 102.017 21.1804C101.924 21.0737 101.877 20.9537 101.877 20.8204V7.82176C101.877 7.67511 101.924 7.55512 102.017 7.4618C102.124 7.36847 102.243 7.32181 102.377 7.32181H104.953C105.1 7.32181 105.22 7.36847 105.313 7.4618C105.419 7.55512 105.473 7.67511 105.473 7.82176V12.1213H107.57C109.301 12.1213 110.633 12.5079 111.565 13.2812C112.497 14.0411 112.963 15.1677 112.963 16.6609C112.963 18.074 112.49 19.2073 111.545 20.0605C110.613 20.9004 109.288 21.3204 107.57 21.3204H102.377ZM107.49 18.5407C108.049 18.5407 108.482 18.3673 108.788 18.0207C109.095 17.6741 109.248 17.2208 109.248 16.6609C109.248 16.0742 109.095 15.6343 108.788 15.341C108.482 15.0344 108.049 14.881 107.49 14.881H105.473V18.5407H107.49Z" fill="#2E2E2E"/>
        <path d="M36.8722 0.288291C36.669 0.299596 36.5194 0.322207 36.4234 0.356124C36.333 0.39004 36.2709 0.455047 36.2371 0.551144C36.2032 0.647241 36.1862 0.802691 36.1862 1.0175V5.32489C36.1862 5.50578 36.2004 5.63862 36.2286 5.72341C36.2568 5.80255 36.3048 5.85625 36.3726 5.88452C36.446 5.91278 36.5617 5.92691 36.7198 5.92691H37.1348C37.5187 5.92691 37.849 5.7545 38.1257 5.40969C38.408 5.06487 38.5915 4.607 38.6762 4.03607H38.871C38.854 4.22826 38.8456 4.47698 38.8456 4.78223C38.8456 5.32489 38.8653 5.77146 38.9048 6.12193C38.5209 6.10497 37.8744 6.0965 36.9654 6.0965C35.7346 6.0965 34.8142 6.10497 34.2045 6.12193V5.95235C34.3908 5.94105 34.5263 5.91843 34.611 5.88452C34.7013 5.8506 34.7606 5.78559 34.7888 5.6895C34.8227 5.5934 34.8396 5.43795 34.8396 5.22315V1.0175C34.8396 0.802691 34.8227 0.647241 34.7888 0.551144C34.7606 0.455047 34.7013 0.39004 34.611 0.356124C34.5263 0.322207 34.3908 0.299596 34.2045 0.288291V0.118708C34.4924 0.135666 34.9384 0.144145 35.5426 0.144145C36.1185 0.144145 36.5617 0.135666 36.8722 0.118708V0.288291Z" fill="#2E2E2E"/>
        <path d="M49.6526 0C50.2511 0 50.7734 0.121534 51.2194 0.364603C51.6711 0.607671 52.0212 0.960968 52.2696 1.42449C52.518 1.88237 52.6422 2.43068 52.6422 3.06945C52.6422 3.69125 52.5152 4.24239 52.2611 4.72288C52.0071 5.20336 51.6513 5.57644 51.194 5.84212C50.7423 6.1078 50.2257 6.24064 49.6442 6.24064C49.0457 6.24064 48.5206 6.11911 48.0689 5.87604C47.6229 5.63297 47.2756 5.2825 47.0272 4.82463C46.7788 4.3611 46.6546 3.80996 46.6546 3.1712C46.6546 2.54939 46.7816 1.99825 47.0357 1.51776C47.2897 1.03728 47.6426 0.664199 48.0943 0.39852C48.5516 0.13284 49.0711 0 49.6526 0ZM49.6188 0.152624C49.3082 0.152624 49.0344 0.279811 48.7972 0.534185C48.5601 0.782907 48.3766 1.13338 48.2468 1.5856C48.1225 2.03782 48.0604 2.55505 48.0604 3.13728C48.0604 3.72517 48.131 4.24239 48.2722 4.68896C48.419 5.13553 48.6138 5.48035 48.8565 5.72341C49.105 5.96648 49.3788 6.08802 49.678 6.08802C49.9886 6.08802 50.2624 5.96366 50.4995 5.71493C50.7367 5.46056 50.9174 5.10726 51.0416 4.65504C51.1714 4.20282 51.2364 3.6856 51.2364 3.10336C51.2364 2.51548 51.163 1.99825 51.0162 1.55168C50.875 1.10511 50.6802 0.760296 50.4318 0.517227C50.189 0.274159 49.918 0.152624 49.6188 0.152624Z" fill="#2E2E2E"/>
        <path d="M65.1373 0.118708C65.0978 0.599192 65.078 1.0288 65.078 1.40754C65.078 1.67322 65.0865 1.88802 65.1035 2.05195H64.9087C64.7957 1.41319 64.6264 0.963795 64.4005 0.703768C64.1747 0.443741 63.8585 0.313728 63.452 0.313728H63.1725C62.9975 0.313728 62.8704 0.32786 62.7914 0.356124C62.7123 0.384388 62.6587 0.440915 62.6305 0.525706C62.6022 0.604845 62.5881 0.734858 62.5881 0.915746V3.05249H62.8845C63.1838 3.05249 63.4096 2.94226 63.5621 2.7218C63.7202 2.50134 63.8303 2.23849 63.8924 1.93324H64.0872C64.0702 2.17066 64.0617 2.43634 64.0617 2.73028V3.13728C64.0617 3.42557 64.0787 3.82692 64.1126 4.34132H63.9178C63.7992 3.59515 63.4548 3.22207 62.8845 3.22207H62.5881V5.17227C62.5881 5.39838 62.6107 5.56514 62.6559 5.67254C62.7067 5.77429 62.7914 5.84212 62.9099 5.87604C63.0342 5.90996 63.229 5.92974 63.4943 5.93539V6.12193C62.7998 6.10497 62.2832 6.0965 61.9445 6.0965C61.6622 6.0965 61.3065 6.10215 60.8773 6.11345L60.6063 6.12193V5.95235C60.7927 5.94105 60.9282 5.91843 61.0129 5.88452C61.1032 5.8506 61.1625 5.78559 61.1907 5.6895C61.2246 5.5934 61.2415 5.43795 61.2415 5.22315V1.0175C61.2415 0.802691 61.2246 0.647241 61.1907 0.551144C61.1625 0.455047 61.1032 0.39004 61.0129 0.356124C60.9282 0.322207 60.7927 0.299596 60.6063 0.288291V0.118708C61.2161 0.135666 62.1364 0.144145 63.3673 0.144145C64.1973 0.144145 64.7873 0.135666 65.1373 0.118708Z" fill="#2E2E2E"/>
        <path d="M77.6663 0.118708C77.6268 0.65572 77.607 1.1362 77.607 1.56016C77.607 1.82584 77.6155 2.04064 77.6324 2.20457H77.4376C77.3021 1.50929 77.1158 1.02032 76.8787 0.737684C76.6472 0.455047 76.3282 0.313728 75.9217 0.313728H75.7269V5.15531C75.7269 5.39273 75.7495 5.56514 75.7946 5.67254C75.8454 5.77994 75.9301 5.85343 76.0487 5.893C76.1729 5.92691 76.3677 5.9467 76.6331 5.95235V6.12193C75.9217 6.10497 75.3853 6.0965 75.0239 6.0965C74.6682 6.0965 74.1516 6.10497 73.4741 6.12193V5.95235C73.7394 5.9467 73.9314 5.92691 74.05 5.893C74.1742 5.85343 74.2589 5.77994 74.304 5.67254C74.3549 5.56514 74.3803 5.39273 74.3803 5.15531V0.313728H74.194C73.9229 0.313728 73.6914 0.373082 73.4995 0.49179C73.3132 0.610498 73.1522 0.808344 73.0167 1.08533C72.8812 1.35666 72.7655 1.72974 72.6695 2.20457H72.4747C72.4917 2.04064 72.5001 1.82584 72.5001 1.56016C72.5001 1.1362 72.4804 0.65572 72.4408 0.118708C72.9546 0.135666 73.827 0.144145 75.0578 0.144145C76.2887 0.144145 77.1581 0.135666 77.6663 0.118708Z" fill="#2E2E2E"/>
        <path d="M7.71011 0.0425562H33.2773V1.00246H7.71011V0.0425562Z" fill="#2E2E2E"/>
        <path d="M3.87503 2.44231H33.2773V3.40221H3.87503V2.44231Z" fill="#2E2E2E"/>
        <path d="M0.359539 5.00205H33.2773V5.96195H0.359539V5.00205Z" fill="#2E2E2E"/>
        <path d="M104.866 0.0425562H79.2983V1.00246H104.866V0.0425562Z" fill="#2E2E2E"/>
        <path d="M112.216 22.1203H0.359539V23.0802H112.216V22.1203Z" fill="#2E2E2E"/>
        <path d="M108.701 24.0401H3.23585V25H108.701V24.0401Z" fill="#2E2E2E"/>
        <path d="M108.701 2.44231H79.2983V3.40221H108.701V2.44231Z" fill="#2E2E2E"/>
        <path d="M112.216 5.00205H79.2983V5.96195H112.216V5.00205Z" fill="#2E2E2E"/>
        </svg>
    </symbol>

    <symbol id="search" viewBox="0 0 16 16" fill="none" xmlns="http://www.w3.org/2000/svg">
        <svg width="16" height="16" viewBox="0 0 16 16"  xmlns="http://www.w3.org/2000/svg">
        <path d="M15 15L11 11M7 13C3.68629 13 1 10.3137 1 7C1 3.68629 3.68629 1 7 1C10.3137 1 13 3.68629 13 7C13 10.3137 10.3137 13 7 13Z" stroke="black"/>
        </svg>
    </symbol>

    <symbol id="wishlist" viewBox="0 0 22 19" xmlns="http://www.w3.org/2000/svg">
        <svg width="22" height="19" viewBox="0 0 22 19" xmlns="http://www.w3.org/2000/svg">
        <path d="M10.9167 18L10.5631 18.3536C10.7584 18.5488 11.075 18.5488 11.2702 18.3536L10.9167 18ZM2.467 9.55034L2.11345 9.90389L2.467 9.55034ZM19.3663 9.55034L19.0128 9.19679L19.3663 9.55034ZM9.55034 2.46701L9.90389 2.11345L9.55034 2.46701ZM10.9167 3.83333L10.5631 4.18689C10.7584 4.38215 11.075 4.38215 11.2702 4.18689L10.9167 3.83333ZM12.283 2.46701L11.9294 2.11345L11.9294 2.11345L12.283 2.46701ZM11.2702 17.6464L2.82056 9.19678L2.11345 9.90389L10.5631 18.3536L11.2702 17.6464ZM19.0128 9.19679L10.5631 17.6464L11.2702 18.3536L19.7199 9.90389L19.0128 9.19679ZM9.19679 2.82056L10.5631 4.18689L11.2702 3.47978L9.90389 2.11345L9.19679 2.82056ZM11.2702 4.18689L12.6365 2.82056L11.9294 2.11345L10.5631 3.47978L11.2702 4.18689ZM15.8247 0.5C14.3637 0.5 12.9625 1.08038 11.9294 2.11345L12.6365 2.82056C13.4821 1.97502 14.6289 1.5 15.8247 1.5V0.5ZM20.3333 6.00867C20.3333 7.20445 19.8583 8.35125 19.0128 9.19679L19.7199 9.90389C20.753 8.87082 21.3333 7.46966 21.3333 6.00867H20.3333ZM21.3333 6.00867C21.3333 2.96632 18.867 0.5 15.8247 0.5V1.5C18.3147 1.5 20.3333 3.5186 20.3333 6.00867H21.3333ZM6.00867 1.5C7.20445 1.5 8.35125 1.97502 9.19679 2.82056L9.90389 2.11345C8.87082 1.08038 7.46966 0.5 6.00867 0.5V1.5ZM1.5 6.00867C1.5 3.5186 3.5186 1.5 6.00867 1.5V0.5C2.96632 0.5 0.5 2.96632 0.5 6.00867H1.5ZM2.82056 9.19678C1.97502 8.35124 1.5 7.20445 1.5 6.00867H0.5C0.5 7.46966 1.08037 8.87081 2.11345 9.90389L2.82056 9.19678Z" fill="black"/>
        </svg>
    </symbol> 

    <symbol id="bag" viewBox="0 0 17 20" xmlns="http://www.w3.org/2000/svg">
        <svg width="17" height="20" viewBox="0 0 17 20"  xmlns="http://www.w3.org/2000/svg">
        <path d="M2.00802 8.5723L1.51107 8.51709L2.00802 8.5723ZM1.00802 17.5723L1.50496 17.6275L1.00802 17.5723ZM16.1193 17.5723L15.6224 17.6275L16.1193 17.5723ZM15.1193 8.5723L15.6163 8.51709V8.51708L15.1193 8.5723ZM1.51107 8.51709L0.511074 17.5171L1.50496 17.6275L2.50496 8.62752L1.51107 8.51709ZM2.28587 19.5H14.8415V18.5H2.28587V19.5ZM16.6163 17.5171L15.6163 8.51709L14.6224 8.62752L15.6224 17.6275L16.6163 17.5171ZM13.8415 6.92857H3.28587V7.92857H13.8415V6.92857ZM15.6163 8.51708C15.5158 7.61274 14.7514 6.92857 13.8415 6.92857V7.92857C14.2418 7.92857 14.5782 8.22961 14.6224 8.62752L15.6163 8.51708ZM14.8415 19.5C15.9058 19.5 16.7338 18.5749 16.6163 17.5171L15.6224 17.6275C15.6741 18.0929 15.3098 18.5 14.8415 18.5V19.5ZM0.511074 17.5171C0.393541 18.5749 1.22156 19.5 2.28587 19.5V18.5C1.81757 18.5 1.45324 18.0929 1.50496 17.6275L0.511074 17.5171ZM2.50496 8.62752C2.54917 8.22961 2.88551 7.92857 3.28587 7.92857V6.92857C2.37596 6.92857 1.61156 7.61274 1.51107 8.51709L2.50496 8.62752ZM5.20653 5.5V4.85714H4.20653V5.5H5.20653ZM11.9208 4.85714V5.5H12.9208V4.85714H11.9208ZM8.56367 1.5C10.4178 1.5 11.9208 3.00304 11.9208 4.85714H12.9208C12.9208 2.45076 10.9701 0.5 8.56367 0.5V1.5ZM5.20653 4.85714C5.20653 3.00304 6.70957 1.5 8.56367 1.5V0.5C6.15729 0.5 4.20653 2.45076 4.20653 4.85714H5.20653Z"/>
        </svg>  
    </symbol> 

    <symbol id="profile" viewBox="0 0 15 20" xmlns="http://www.w3.org/2000/svg">
        <svg width="15" height="20" viewBox="0 0 15 20"  xmlns="http://www.w3.org/2000/svg">
        <path fill-rule="evenodd" clip-rule="evenodd" d="M11.2924 4.85714C11.2924 6.98757 9.56458 8.71428 7.43276 8.71428C5.30094 8.71428 3.5731 6.98757 3.5731 4.85714C3.5731 2.72671 5.30094 1 7.43276 1C9.56458 1 11.2924 2.72671 11.2924 4.85714Z" stroke="black" stroke-linecap="square"/>
        <path fill-rule="evenodd" clip-rule="evenodd" d="M13.8655 19H1C1 18.0865 1 17.2174 1 16.4304C1 14.2988 2.72803 12.5714 4.85966 12.5714H10.0059C12.1375 12.5714 13.8655 14.2988 13.8655 16.4304C13.8655 17.2174 13.8655 18.0865 13.8655 19Z" stroke="black" stroke-linecap="square"/>
        </svg>
    </symbol> 

    <symbol id="etc" viewBox="0 0 3 16" xmlns="http://www.w3.org/2000/svg">
        <svg width="3" height="16" viewBox="0 0 3 16" fill="none" xmlns="http://www.w3.org/2000/svg">
        <path d="M1.63636 2.27273C1.28491 2.27273 1 1.98782 1 1.63636C1 1.28491 1.28491 1 1.63636 1C1.98782 1 2.27273 1.28491 2.27273 1.63636C2.27273 1.98782 1.98782 2.27273 1.63636 2.27273Z" stroke="black"/>
        <path d="M1.63636 8.63636C1.28491 8.63636 1 8.35145 1 8C1 7.64855 1.28491 7.36364 1.63636 7.36364C1.98782 7.36364 2.27273 7.64855 2.27273 8C2.27273 8.35145 1.98782 8.63636 1.63636 8.63636Z" stroke="black"/>
        <path d="M1.63636 15C1.28491 15 1 14.7151 1 14.3636C1 14.0122 1.28491 13.7273 1.63636 13.7273C1.98782 13.7273 2.27273 14.0122 2.27273 14.3636C2.27273 14.7151 1.98782 15 1.63636 15Z" stroke="black"/>
        </svg>
    </symbol>


    <symbol viewBox="0 0 16 16" id="home">
        <svg width="16" height="16" viewBox="0 0 16 16" xmlns="http://www.w3.org/2000/svg">
            <path fill-rule="evenodd" clip-rule="evenodd" d="M8 1L1 7V14C1 14.5523 1.44772 15 2 15H6V12C6 10.8954 6.89543 10 8 10C9.10457 10 10 10.8954 10 12V15H14C14.5523 15 15 14.5523 15 14V7L8 1Z" />
            <path d="M8 1L8.3254 0.620372C8.13815 0.459876 7.86185 0.459876 7.6746 0.620372L8 1ZM1 7L0.674604 6.62037L0.5 6.77003V7H1ZM6 15V15.5C6.27614 15.5 6.5 15.2761 6.5 15H6ZM10 15H9.5C9.5 15.2761 9.72386 15.5 10 15.5V15ZM15 7H15.5V6.77003L15.3254 6.62037L15 7ZM2 15.5H6V14.5H2V15.5ZM15.3254 6.62037L8.3254 0.620372L7.6746 1.37963L14.6746 7.37963L15.3254 6.62037ZM7.6746 0.620372L0.674604 6.62037L1.3254 7.37963L8.3254 1.37963L7.6746 0.620372ZM6.5 15V12H5.5V15H6.5ZM9.5 12V15H10.5V12H9.5ZM10 15.5H14V14.5H10V15.5ZM15.5 14V7H14.5V14H15.5ZM0.5 7V14H1.5V7H0.5ZM8 10.5C8.82843 10.5 9.5 11.1716 9.5 12H10.5C10.5 10.6193 9.38071 9.5 8 9.5V10.5ZM8 9.5C6.61929 9.5 5.5 10.6193 5.5 12H6.5C6.5 11.1716 7.17157 10.5 8 10.5V9.5ZM14 15.5C14.8284 15.5 15.5 14.8284 15.5 14H14.5C14.5 14.2761 14.2761 14.5 14 14.5V15.5ZM2 14.5C1.72386 14.5 1.5 14.2761 1.5 14H0.5C0.5 14.8284 1.17157 15.5 2 15.5V14.5Z" fill="white" />
        </svg>

    </symbol>
    <symbol viewBox="0 0 11 14" id="about">
        <svg width="11" height="14" viewBox="0 0 11 14" fill="none" xmlns="http://www.w3.org/2000/svg">
            <path d="M5 1.01V1.51H6V1.01H5ZM6 1V0.5H5V1H6ZM6 13.01L6 3.51H5L5 13.01H6ZM6 1.01V1H5V1.01H6ZM2 4.51H5.5V3.51H2V4.51ZM0 13.51H11V12.51H0V13.51Z" fill="#686868"/>
            </svg>
            
    </symbol>
    <symbol viewBox="0 0 16 16" id="contacts">
        <svg width="16" height="16" viewBox="0 0 16 16" fill="none" xmlns="http://www.w3.org/2000/svg">
            <path d="M11 8C11 9.65685 9.65685 11 8 11C6.34315 11 5 9.65685 5 8C5 6.34315 6.34315 5 8 5C9.65685 5 11 6.34315 11 8ZM11 8V9C11 10.1046 11.8954 11 13 11C13.7095 11 14.3328 10.6305 14.6878 10.0734C14.8855 9.76329 15 9.39502 15 9V8C15 4.13401 11.866 1 8 1C4.13401 1 1 4.13401 1 8C1 11.866 4.13401 15 8 15C9.48725 15 10.8662 14.5362 12 13.7453" stroke="#686868"/>
            </svg>
            
    </symbol>
    <symbol viewBox="0 0 14 14" id="kitchen">
        <svg width="14" height="14" viewBox="0 0 14 14" xmlns="http://www.w3.org/2000/svg">
            <path d="M7 0V7.875H0V14H14V0H7ZM7 13.125H0.875V8.75H7V13.125ZM13.125 13.125H7.875V4.375H13.125V13.125ZM13.125 3.5H7.875V0.875H13.125V3.5Z"/>
            <path d="M6.125 2.88137L5.25 2.00637V0H4.375V2.36862L5.25 3.24362V3.5H1.75V3.24362L2.625 2.36862V0H1.75V2.00637L0.875 2.88137V4.375H6.125V2.88137Z"/>
            <path d="M5.25 9.625H2.625V10.5H5.25V9.625Z"/>
            <path d="M9.625 1.75H8.75V2.625H9.625V1.75Z"/>
            <path d="M9.625 6.125H8.75V8.75H9.625V6.125Z"/>
            <path d="M1.75 5.25H0.875V6.125H1.75V5.25Z"/>
            <path d="M3.9375 5.25H3.0625V6.125H3.9375V5.25Z"/>
            <path d="M6.125 5.25H5.25V6.125H6.125V5.25Z"/>
            </svg>
            
    </symbol>
    <symbol viewBox="0 0 18 14" id="bedroom">
        <svg width="18" height="14" viewBox="0 0 18 14" xmlns="http://www.w3.org/2000/svg">
            <path d="M17.6432 7.9694C17.6432 7.38579 17.3239 6.85997 16.8098 6.59712C16.2856 6.32902 15.6068 6.19308 14.7923 6.19308H5.93884C5.87509 5.87495 5.73384 5.58591 5.52195 5.35038L4.26642 3.95467C3.95573 3.60928 3.50928 3.39956 3.00934 3.3642L2.7838 3.34825C2.66833 3.33994 2.551 3.35624 2.43838 3.39401V2.6562C2.43838 2.39776 2.32953 2.16436 2.15551 1.99899C2.33197 1.78748 2.43838 1.51552 2.43838 1.21917C2.43838 0.546905 1.89144 0 1.21921 0C0.546974 0 0 0.54694 0 1.21921C0 1.51559 0.106411 1.78751 0.282877 1.99903C0.108857 2.16443 0 2.39779 0 2.65624V13.6554C0 13.8457 0.154275 14 0.344594 14H1.53396C1.7117 14 1.86029 13.8648 1.87704 13.6878C1.91808 13.2538 2.14755 12.0621 2.71606 11.5277H3.63878C3.8291 11.5277 3.98337 11.3734 3.98337 11.1831C3.98337 10.9928 3.8291 10.8385 3.63878 10.8385L0.689154 10.8385V7.80478L5.28866 7.80468V8.70266C5.28866 9.23395 5.72088 9.66621 6.25221 9.66621H16.6797C16.7722 9.66621 16.8653 9.65277 16.954 9.62644V10.8385H15.0551C15.0548 10.8385 15.0545 10.8385 15.0542 10.8385H6.67086C6.48054 10.8385 6.32627 10.9928 6.32627 11.1831C6.32627 11.3734 6.48054 11.5277 6.67086 11.5277H14.9272C15.4934 12.0607 15.7244 13.2535 15.7662 13.6878C15.783 13.8648 15.9315 14 16.1093 14H17.2986C17.4889 14 17.6432 13.8457 17.6432 13.6554V7.9694ZM2.43921 4.52073C2.44434 4.3739 2.42422 4.22217 2.54521 4.11421C2.66692 4.0056 2.81292 4.04119 2.96068 4.05167C3.28626 4.07472 3.56059 4.20053 3.75401 4.4156L5.00954 5.81134C5.21306 6.03753 5.31068 6.35284 5.28439 6.69905C5.27429 6.83234 5.2767 6.9505 5.16436 7.04454C5.06171 7.13048 4.9503 7.11446 4.82673 7.11077C4.47966 7.10036 4.17645 6.97004 3.97293 6.74381L2.7174 5.3481C2.51433 5.12229 2.42873 4.82053 2.43921 4.52073ZM0.689188 7.11556V2.65624C0.689188 2.53611 0.786915 2.43838 0.907041 2.43838H1.53127C1.6514 2.43838 1.74913 2.53611 1.74913 2.65624V7.11552L0.689188 7.11556ZM2.43835 6.0683L3.3804 7.11556H2.43835V6.0683ZM1.21917 0.689223C1.51139 0.689223 1.74916 0.926958 1.74916 1.21921C1.74916 1.51146 1.51142 1.74919 1.21917 1.74919C0.926924 1.74919 0.689188 1.51146 0.689188 1.21921C0.689188 0.926958 0.926924 0.689223 1.21917 0.689223ZM1.23372 13.3108H0.689188V11.5277H1.84468C1.47176 12.1382 1.30312 12.8934 1.23372 13.3108ZM6.25225 8.97706C6.10101 8.97706 5.97795 8.854 5.97795 8.70276L5.97781 6.88227H14.7923C15.4966 6.88227 16.0698 6.99278 16.496 7.2107C16.7785 7.35516 16.954 7.64586 16.954 7.9694V8.70145C16.954 8.7019 16.954 8.70235 16.954 8.7028C16.954 8.85404 16.8309 8.97709 16.6797 8.97709L6.25225 8.97706ZM16.4095 13.3108C16.3401 12.8934 16.1715 12.1382 15.7986 11.5277H16.954V13.3108H16.4095Z" />
            <path d="M5.47316 11.0514C5.40186 10.8776 5.19611 10.7935 5.02312 10.865C4.84951 10.9367 4.76484 11.1415 4.83669 11.315C4.9085 11.4885 5.1133 11.5733 5.28673 11.5015C5.45983 11.4297 5.54522 11.2245 5.47316 11.0514Z"/>
            </svg>
            
    </symbol>

    <symbol viewBox="0 0 20 14" id="livingroom">
        <svg width="20" height="14" viewBox="0 0 20 14" xmlns="http://www.w3.org/2000/svg">
            <path d="M18.766 10.1277H17.8723V8.34043H18.4681C18.6326 8.34035 18.7659 8.20694 18.7658 8.0424C18.7658 8.0261 18.7645 8.00979 18.7618 7.9937L18.4639 6.20647C18.44 6.06282 18.3158 5.95752 18.1702 5.95745H16.9787C16.8331 5.95752 16.7089 6.06282 16.685 6.20647L16.3871 7.9937C16.3602 8.15597 16.4698 8.30941 16.6321 8.3364C16.6482 8.33908 16.6645 8.34043 16.6809 8.34043H17.2766V10.1277H16.0851C16.0751 10.129 16.0651 10.131 16.0553 10.1336C15.9155 9.43816 15.3051 8.9374 14.5957 8.93617H14V8.04255C14 7.54902 13.5999 7.14894 13.1064 7.14894H10.7234C10.2299 7.14894 9.82979 7.54902 9.82979 8.04255V8.93617H9.23404V8.04255C9.23404 7.54902 8.83396 7.14894 8.34043 7.14894H5.95745C5.46391 7.14894 5.06383 7.54902 5.06383 8.04255V8.93617H4.46808C3.7587 8.9374 3.14836 9.43816 3.00851 10.1336C2.99872 10.131 2.98878 10.129 2.97872 10.1277H1.78723V8.34043H2.38298C2.54748 8.34035 2.68078 8.20694 2.6807 8.0424C2.6807 8.0261 2.67936 8.00979 2.67668 7.9937L2.37881 6.20647C2.35494 6.06282 2.23073 5.95752 2.08511 5.95745H0.893617C0.747995 5.95752 0.623782 6.06282 0.599915 6.20647L0.302043 7.9937C0.275048 8.15597 0.384739 8.30941 0.547043 8.3364C0.563128 8.33908 0.579436 8.34043 0.595745 8.34043H1.19149V10.1277H0.297872C0.133372 10.1277 0 10.261 0 10.4255V13.7021C0 13.8666 0.133372 14 0.297872 14H18.766C18.9305 14 19.0638 13.8666 19.0638 13.7021V10.4255C19.0638 10.261 18.9305 10.1277 18.766 10.1277ZM0.947532 7.74468L1.14591 6.55319H1.83281L2.03119 7.74468H0.947532ZM2.68085 13.4043H0.595745V10.7234H2.68085V13.4043ZM10.4255 8.04255C10.4255 7.87805 10.5589 7.74468 10.7234 7.74468H13.1064C13.2709 7.74468 13.4043 7.87805 13.4043 8.04255V8.93617H10.4255V8.04255ZM5.65957 8.04255C5.65957 7.87805 5.79295 7.74468 5.95745 7.74468H8.34043C8.50493 7.74468 8.6383 7.87805 8.6383 8.04255V8.93617H5.65957V8.04255ZM15.4894 13.4043H3.57447V12.5106H15.4894V13.4043ZM15.4894 11.9149H3.57447V10.4255C3.57447 9.93199 3.97455 9.53191 4.46808 9.53191H14.5957C15.0893 9.53191 15.4894 9.93199 15.4894 10.4255V11.9149ZM17.0326 7.74468L17.231 6.55319H17.9179L18.1163 7.74468H17.0326ZM18.4681 13.4043H16.383V10.7234H18.4681V13.4043Z"/>
            <path d="M5.95745 5.3617H12.5106C12.6751 5.3617 12.8085 5.22833 12.8085 5.06383V0.297872C12.8085 0.133372 12.6751 0 12.5106 0H5.95745C5.79295 0 5.65957 0.133372 5.65957 0.297872V5.06383C5.65957 5.22833 5.79295 5.3617 5.95745 5.3617ZM6.25532 0.595745H12.2128V3.61855L11.5518 2.79255C11.499 2.72631 11.4204 2.68569 11.3358 2.68085C11.2513 2.67713 11.1691 2.70848 11.1086 2.76753L10.1277 3.74902L8.25315 1.87451C8.14312 1.76463 7.96704 1.75789 7.84894 1.85902L6.25532 3.22506V0.595745ZM6.25532 4.00906L8.02677 2.48991L9.91706 4.37992C10.0334 4.4962 10.2219 4.4962 10.3383 4.37992L11.2944 3.42374L12.2128 4.57294V4.76596H6.25532V4.00906Z"/>
            <path d="M10.4255 2.68085C10.9191 2.68085 11.3191 2.28077 11.3191 1.78723C11.3191 1.2937 10.9191 0.893617 10.4255 0.893617C9.93199 0.893617 9.53191 1.2937 9.53191 1.78723C9.53191 2.28077 9.93199 2.68085 10.4255 2.68085ZM10.4255 1.48936C10.59 1.48936 10.7234 1.62273 10.7234 1.78723C10.7234 1.95173 10.59 2.08511 10.4255 2.08511C10.261 2.08511 10.1277 1.95173 10.1277 1.78723C10.1277 1.62273 10.261 1.48936 10.4255 1.48936Z"/>
            </svg>
            
    </symbol>
    <symbol viewBox="0 0 14 14" id="closet">
        <svg width="14" height="14" viewBox="0 0 14 14" fill="none" xmlns="http://www.w3.org/2000/svg">
            <path d="M13.5352 0H0.410156C0.183641 0 0 0.183641 0 0.410156C0 0.636672 0.183641 0.820312 0.410156 0.820312H0.4375V13.5898C0.4375 13.8164 0.621141 14 0.847656 14C1.07417 14 1.25781 13.8164 1.25781 13.5898V13.3438H12.6875V13.5898C12.6875 13.8164 12.8711 14 13.0977 14C13.3242 14 13.5078 13.8164 13.5078 13.5898V0.820312H13.5352C13.7617 0.820312 13.9453 0.636672 13.9453 0.410156C13.9453 0.183641 13.7617 0 13.5352 0ZM7.38281 8.50391H12.6875V10.0898H7.38281V8.50391ZM12.6875 7.68359H7.38281V6.09766H12.6875V7.68359ZM6.5625 12.5234H4.32031V0.820312H6.5625V12.5234ZM1.25781 0.820312H3.5V12.5234H1.25781V0.820312ZM7.38281 12.5234V10.9102H12.6875V12.5234H7.38281ZM12.6875 5.27734H7.38281V0.820312H12.6875V5.27734Z" fill="#686868"/>
            <path d="M5.44141 7.41016C5.66793 7.41016 5.85156 7.22652 5.85156 7C5.85156 6.77348 5.66793 6.58984 5.44141 6.58984C5.21488 6.58984 5.03125 6.77348 5.03125 7C5.03125 7.22652 5.21488 7.41016 5.44141 7.41016Z" fill="#686868"/>
            <path d="M2.37891 7.41018C2.60543 7.41018 2.78906 7.22655 2.78906 7.00003C2.78906 6.7735 2.60543 6.58987 2.37891 6.58987C2.15238 6.58987 1.96875 6.7735 1.96875 7.00003C1.96875 7.22655 2.15238 7.41018 2.37891 7.41018Z" fill="#686868"/>
            </svg>
            
    </symbol>
    <symbol viewBox="0 0 14 14" id="office">
        <svg width="14" height="14" viewBox="0 0 14 14" xmlns="http://www.w3.org/2000/svg">
            <path d="M13.5898 6.61719H12.959C13.0991 6.37566 13.1797 6.09561 13.1797 5.79688V4.56641C13.1797 4.33989 12.996 4.15625 12.7695 4.15625H11.9928C12.2291 3.05542 13.3496 2.45224 13.3689 2.44204C13.5694 2.33778 13.6479 2.09079 13.544 1.88986C13.4401 1.68861 13.1926 1.60975 12.9914 1.71374C12.9511 1.73458 12.43 2.0099 11.9492 2.5425V1.25781C11.9492 1.0313 11.7656 0.847656 11.5391 0.847656C11.3125 0.847656 11.1289 1.0313 11.1289 1.25781V2.5425C10.6481 2.0099 10.127 1.73458 10.0867 1.71374C9.88545 1.6097 9.63804 1.68864 9.53405 1.88986C9.43007 2.09111 9.50893 2.33855 9.71015 2.44251C9.72286 2.44907 10.8503 3.04454 11.0859 4.15625H10.3086C10.0821 4.15625 9.89844 4.33989 9.89844 4.56641V5.79688C9.89844 6.09561 9.97907 6.37566 10.1192 6.61719H6.43316L6.02301 5.79688H7.84766C8.07417 5.79688 8.25781 5.61323 8.25781 5.38672V0.410156C8.25781 0.183641 8.07417 0 7.84766 0H1.23047C1.00395 0 0.820312 0.183641 0.820312 0.410156V5.38672C0.820312 5.61323 1.00395 5.79688 1.23047 5.79688H3.05512L2.64496 6.61719H0.410156C0.183641 6.61719 0 6.80083 0 7.02734C0 7.25386 0.183641 7.4375 0.410156 7.4375H0.820312V13.5898C0.820312 13.8164 1.00395 14 1.23047 14C1.45698 14 1.64062 13.8164 1.64062 13.5898V12.3594H7.4375V13.5898C7.4375 13.8164 7.62114 14 7.84766 14H12.7695C12.996 14 13.1797 13.8164 13.1797 13.5898V7.4375H13.5898C13.8164 7.4375 14 7.25386 14 7.02734C14 6.80083 13.8164 6.61719 13.5898 6.61719ZM10.7188 5.79688V4.97656H12.3594V5.79688C12.3594 6.2492 11.9914 6.61719 11.5391 6.61719C11.0867 6.61719 10.7188 6.2492 10.7188 5.79688ZM1.64062 0.820312H7.4375V4.97656H1.64062V0.820312ZM3.97223 5.79688H5.1059L5.51605 6.61719H3.56207L3.97223 5.79688ZM1.64062 11.5391V7.4375H7.4375V11.5391H1.64062ZM8.25781 10.7188H12.3594V13.1797H8.25781V10.7188ZM12.3594 9.89844H8.25781V7.4375H12.3594V9.89844Z"/>
            <path d="M10.3086 9.07812C10.5351 9.07812 10.7188 8.89449 10.7188 8.66797C10.7188 8.44145 10.5351 8.25781 10.3086 8.25781C10.0821 8.25781 9.89844 8.44145 9.89844 8.66797C9.89844 8.89449 10.0821 9.07812 10.3086 9.07812Z"/>
            <path d="M10.3086 12.3594C10.5351 12.3594 10.7188 12.1757 10.7188 11.9492C10.7188 11.7227 10.5351 11.5391 10.3086 11.5391C10.0821 11.5391 9.89844 11.7227 9.89844 11.9492C9.89844 12.1757 10.0821 12.3594 10.3086 12.3594Z"/>
            </svg>
            
    </symbol>
    <symbol viewBox="0 0 14 14" id="childrensroom">
        <svg width="14" height="14" viewBox="0 0 14 14" xmlns="http://www.w3.org/2000/svg">
            <path d="M13.8821 11.6617C13.724 11.501 13.4662 11.4982 13.3045 11.6547C13.3045 11.6547 13.304 11.655 13.3032 11.6557L13.302 11.6546L13.3044 11.6523C13.303 11.6536 13.2545 11.6991 13.1521 11.7734V5.38457C13.1521 5.15806 12.9685 4.97442 12.742 4.97442C12.5155 4.97442 12.3318 5.15806 12.3318 5.38457V5.79004C10.8676 5.75677 10.1135 5.54603 9.38283 5.34156C8.70821 5.15275 8.07103 4.97442 6.99988 4.97442C5.92873 4.97442 5.29152 5.15275 4.61693 5.34156C3.88626 5.54606 3.13221 5.75679 1.66792 5.79004V3.74397C1.66792 2.27218 2.33876 1.26997 3.55688 0.921912C4.68816 0.598714 5.88156 1.0679 6.49709 2.04477C6.34788 2.11849 6.22133 2.19756 6.11781 2.28189L5.64931 1.81333C5.48916 1.65316 5.22945 1.65316 5.06927 1.81333C4.90909 1.97351 4.90909 2.23319 5.06927 2.39337L5.59957 2.92367L5.06927 3.45396C4.90909 3.61414 4.90909 3.87382 5.06927 4.034C5.22942 4.19415 5.48913 4.19418 5.64931 4.034L6.11786 3.56547C6.25953 3.68086 6.44407 3.78651 6.67121 3.88191C7.05902 4.04474 7.52074 4.15417 7.82021 4.15417C8.49868 4.15417 9.05066 3.60219 9.05066 2.92372C9.05066 2.24525 8.49868 1.69327 7.82021 1.69327C7.67228 1.69327 7.4847 1.72004 7.28605 1.76671C6.51106 0.376303 4.87691 -0.30832 3.33157 0.133165C1.75301 0.584194 0.847645 1.90029 0.847645 3.74397V11.7734C0.745326 11.699 0.696764 11.6536 0.695397 11.6522L0.697749 11.6545L0.696628 11.6557C0.696409 11.6555 0.695425 11.6545 0.695425 11.6545C0.533771 11.498 0.275813 11.5009 0.117741 11.6616C-0.0410967 11.8231 -0.0389639 12.0828 0.122553 12.2417C0.158209 12.2771 0.623484 12.7201 1.7079 13.1507C2.79225 13.5818 4.49364 14.0002 6.99991 14C9.50617 14.0002 11.2076 13.5818 12.2919 13.1507C13.3763 12.7201 13.8416 12.2771 13.8773 12.2417C14.0388 12.0828 14.0409 11.8232 13.8821 11.6617ZM7.09615 2.67938C7.38919 2.5705 7.68223 2.51351 7.82021 2.51351C8.04636 2.51351 8.23036 2.69751 8.23036 2.92367C8.23036 3.14982 8.04636 3.33382 7.82021 3.33382C7.68223 3.33382 7.38919 3.27683 7.09615 3.16795C6.84197 3.07348 6.69875 2.98163 6.62959 2.92367C6.69875 2.8657 6.84197 2.77385 7.09615 2.67938ZM1.66795 6.61043C3.25012 6.57556 4.09043 6.34074 4.83803 6.13148C5.48374 5.95077 6.04138 5.79472 6.99991 5.79472C7.95843 5.79472 8.51607 5.9508 9.16178 6.13148C9.90938 6.34071 10.7497 6.57554 12.3319 6.61043V10.7165H1.66795V6.61043ZM1.66795 11.5368H12.3319V12.2396C10.772 12.9562 8.73058 13.1774 6.99991 13.1774C5.26934 13.1774 3.22783 12.9562 1.66795 12.2396V11.5368Z"/>
            <path d="M3.71839 9.89624C3.9449 9.89624 4.12854 9.7126 4.12854 9.48609V7.84548C4.12854 7.61897 3.9449 7.43533 3.71839 7.43533C3.49188 7.43533 3.30824 7.61897 3.30824 7.84548V9.48609C3.30824 9.7126 3.49188 9.89624 3.71839 9.89624Z"/>
            <path d="M5.35898 9.89624C5.58549 9.89624 5.76913 9.7126 5.76913 9.48609V7.84548C5.76913 7.61897 5.58549 7.43533 5.35898 7.43533C5.13247 7.43533 4.94883 7.61897 4.94883 7.84548V9.48609C4.94883 9.7126 5.13247 9.89624 5.35898 9.89624Z"/>
            <path d="M6.99959 9.89624C7.2261 9.89624 7.40974 9.7126 7.40974 9.48609V7.84548C7.40974 7.61897 7.2261 7.43533 6.99959 7.43533C6.77308 7.43533 6.58944 7.61897 6.58944 7.84548V9.48609C6.58944 9.7126 6.77308 9.89624 6.99959 9.89624Z"/>
            <path d="M8.6402 9.89624C8.86671 9.89624 9.05035 9.7126 9.05035 9.48609V7.84548C9.05035 7.61897 8.86671 7.43533 8.6402 7.43533C8.41369 7.43533 8.23005 7.61897 8.23005 7.84548V9.48609C8.23005 9.7126 8.41369 9.89624 8.6402 9.89624Z"/>
            <path d="M10.2808 9.89624C10.5073 9.89624 10.6909 9.7126 10.6909 9.48609V7.84548C10.6909 7.61897 10.5073 7.43533 10.2808 7.43533C10.0543 7.43533 9.87063 7.61897 9.87063 7.84548V9.48609C9.87063 9.7126 10.0543 9.89624 10.2808 9.89624Z"/>
            </svg>
            
    </symbol>
    <symbol viewBox="0 0 16 16" id="actions">
        <svg width="16" height="16" viewBox="0 0 16 16" fill="none" xmlns="http://www.w3.org/2000/svg">
            <path d="M5.5 6H6.5M9.5 10H10.5M10.5 5.5L5.5 10.5M7.30145 1.28935L6.17243 2.41837C5.98717 2.60363 5.73589 2.70772 5.47389 2.70772H3.69561C3.15001 2.70772 2.70772 3.15001 2.70772 3.69561V5.47389C2.70772 5.73589 2.60363 5.98717 2.41837 6.17243L1.28935 7.30145C0.903551 7.68725 0.903551 8.31275 1.28935 8.69855L2.41837 9.82757C2.60363 10.0128 2.70772 10.2641 2.70772 10.5261V12.3044C2.70772 12.85 3.15001 13.2923 3.69561 13.2923H5.47389C5.73589 13.2923 5.98717 13.3964 6.17243 13.5816L7.30145 14.7107C7.68725 15.0964 8.31275 15.0964 8.69855 14.7107L9.82757 13.5816C10.0128 13.3964 10.2641 13.2923 10.5261 13.2923H12.3044C12.85 13.2923 13.2923 12.85 13.2923 12.3044V10.5261C13.2923 10.2641 13.3964 10.0128 13.5816 9.82757L14.7107 8.69855C15.0964 8.31275 15.0964 7.68725 14.7107 7.30145L13.5816 6.17243C13.3964 5.98717 13.2923 5.73589 13.2923 5.47389V3.69561C13.2923 3.15001 12.85 2.70772 12.3044 2.70772H10.5261C10.2641 2.70772 10.0128 2.60363 9.82757 2.41837L8.69855 1.28935C8.31275 0.903551 7.68725 0.903551 7.30145 1.28935Z" stroke="#E92D2D"/>
            </svg>
            
    </symbol>
    <symbol viewBox="0 0 15 14" id="new">
        <svg width="15" height="14" viewBox="0 0 15 14" fill="none" xmlns="http://www.w3.org/2000/svg">
            <path fill-rule="evenodd" clip-rule="evenodd" d="M13.1947 5.95794L13.2049 5.96547C13.578 6.23939 14.0012 6.55169 14.0012 7.00033C14.0012 7.44888 13.5783 7.76052 13.2058 8.035L13.2056 8.03516C12.9901 8.19221 12.7211 8.39066 12.6858 8.52214C12.698 8.77478 12.7688 9.02114 12.8927 9.24165L12.8983 9.25442C13.0859 9.68684 13.2783 10.1304 13.0607 10.5047C12.841 10.8828 12.3473 10.9382 11.8701 10.9917C11.6234 10.9933 11.3802 11.0509 11.1591 11.1603C11.0495 11.3816 10.9916 11.625 10.9899 11.8719C10.9363 12.3492 10.8742 12.8465 10.4992 13.0626C10.1243 13.2787 9.67262 13.0839 9.23677 12.894C9.01771 12.7704 8.77324 12.6988 8.52214 12.6846C8.39494 12.7174 8.2021 12.9788 8.04426 13.1927L8.03516 13.205L8.03464 13.2057C7.76021 13.5781 7.44928 14 7.00033 14C6.55132 14 6.24033 13.578 5.96591 13.2056L5.96591 13.2056L5.9655 13.205C5.80782 12.9895 5.61 12.7205 5.47852 12.6852C5.22611 12.6989 4.98012 12.7696 4.75901 12.8921L4.7482 12.8968C4.31516 13.0853 3.87081 13.2787 3.49591 13.0601C3.1179 12.8398 3.06249 12.3467 3.00893 11.8701C3.00784 11.6223 2.94995 11.378 2.8397 11.1561C2.61853 11.046 2.37514 10.9879 2.1281 10.9862C1.65147 10.9357 1.15595 10.8748 0.938043 10.4992C0.720132 10.1236 0.916129 9.67199 1.10605 9.23614C1.22997 9.01746 1.30165 8.77309 1.31546 8.52211C1.28311 8.3945 1.01959 8.20025 0.80584 8.04268L0.805826 8.04267L0.795603 8.03513C0.42244 7.76121 0 7.44953 0 7.0003C0 6.55107 0.42244 6.23939 0.794976 5.96547C1.01046 5.80842 1.27953 5.60997 1.31483 5.47849C1.30142 5.22668 1.22974 4.98143 1.10542 4.76204C0.913076 4.32558 0.720075 3.87387 0.939812 3.49586C1.15955 3.11784 1.65324 3.06243 2.13046 3.00887C2.37642 3.00762 2.61887 2.95061 2.83961 2.84209C2.94924 2.62079 3.0071 2.37745 3.00884 2.13049C3.06243 1.65084 3.12512 1.15413 3.49948 0.937416C3.87384 0.720703 4.3255 0.913048 4.76378 1.10602C4.98317 1.22874 5.22748 1.30031 5.4784 1.31543C5.6056 1.28259 5.79844 1.02124 5.95628 0.80731L5.96538 0.794976L5.96591 0.794268C6.24033 0.421905 6.55127 0 7.00021 0C7.44718 0 7.75737 0.418182 8.03268 0.789324L8.03687 0.794976C8.19455 1.01046 8.39237 1.27953 8.52385 1.31483C8.77501 1.30093 9.01957 1.22929 9.23848 1.10542C9.6743 0.913076 10.1266 0.720103 10.5046 0.940469C10.8826 1.16083 10.938 1.6539 10.9916 2.13052C10.9927 2.37834 11.0506 2.62261 11.1608 2.84455C11.382 2.95463 11.6254 3.01272 11.8724 3.01438C12.349 3.06491 12.8446 3.12577 13.0625 3.50136C13.2804 3.87695 13.0844 4.32861 12.8945 4.76446C12.7705 4.98314 12.6989 5.2275 12.6851 5.47849C12.7174 5.6061 12.9809 5.80037 13.1947 5.95794ZM4.93054 8.40032C4.98801 8.47696 5.07823 8.52207 5.17402 8.52207C5.20675 8.52207 5.23922 8.51674 5.27021 8.50623C5.39444 8.46486 5.47831 8.34864 5.47839 8.2177V5.78284C5.47839 5.61475 5.34211 5.47847 5.17402 5.47847C5.00593 5.47847 4.86965 5.61475 4.86965 5.78284V7.30463L3.59135 5.60023C3.53388 5.52359 3.44366 5.47847 3.34787 5.47847C3.17978 5.47847 3.0435 5.61475 3.0435 5.78284V8.2177C3.0435 8.38579 3.17978 8.52207 3.34787 8.52207C3.51596 8.52207 3.65224 8.38579 3.65224 8.2177V6.69592L4.93054 8.40032ZM7.60897 8.52207H6.39153C6.22344 8.52207 6.08716 8.38579 6.08716 8.2177V7.00026V5.78284C6.08716 5.61475 6.22344 5.47847 6.39153 5.47847H7.60897C7.77706 5.47847 7.91334 5.61475 7.91334 5.78284C7.91334 5.95093 7.77706 6.08721 7.60897 6.08721H6.6959V6.69589H7.60897C7.77706 6.69589 7.91334 6.83217 7.91334 7.00026C7.91334 7.16835 7.77706 7.30463 7.60897 7.30463H6.6959V7.91336H7.60897C7.77706 7.91336 7.91334 8.04964 7.91334 8.21773C7.91334 8.38582 7.77706 8.52207 7.60897 8.52207ZM10.3634 8.31393C10.4048 8.43839 10.5214 8.52228 10.6525 8.52211L10.6647 8.52151C10.7999 8.51637 10.9155 8.42264 10.9484 8.29141L11.5571 5.85655C11.5978 5.69331 11.4984 5.52804 11.3352 5.48736C11.172 5.44667 11.0067 5.54602 10.966 5.70923L10.6112 7.12998L10.333 6.29543C10.3012 6.22541 10.2451 6.16931 10.1751 6.13755C10.0156 6.06522 9.82762 6.1359 9.75529 6.29543L9.47712 7.12998L9.12224 5.70923C9.08155 5.54602 8.91626 5.44667 8.75305 5.48736C8.58983 5.52804 8.49048 5.69334 8.53117 5.85655L9.13988 8.29141C9.17278 8.42264 9.28834 8.51637 9.42353 8.52151C9.56015 8.53172 9.68535 8.44527 9.72424 8.31393L10.0438 7.35397L10.3634 8.31393Z" fill="#FFC107"/>
            </svg>
            
    </symbol>
    <symbol viewBox="0 0 20 14" id="mattress">
        <svg width="20" height="14" viewBox="0 0 20 14" xmlns="http://www.w3.org/2000/svg">
            <path d="M17.5 0H1.59091C1.16912 0.000479178 0.764745 0.168246 0.466496 0.466496C0.168246 0.764745 0.000479178 1.16912 0 1.59091V12.4091C0.000479178 12.8309 0.168246 13.2353 0.466496 13.5335C0.764745 13.8318 1.16912 13.9995 1.59091 14H17.5C17.9218 13.9995 18.3262 13.8318 18.6244 13.5335C18.9227 13.2353 19.0904 12.8309 19.0909 12.4091V1.59091C19.0904 1.16912 18.9227 0.764745 18.6244 0.466496C18.3262 0.168246 17.9218 0.000479178 17.5 0ZM17.5 13.3636H1.59091C1.33784 13.3633 1.09521 13.2627 0.916263 13.0837C0.737314 12.9048 0.636653 12.6622 0.636364 12.4091V12.09C0.911349 12.2974 1.24649 12.4094 1.59091 12.4091H2.86364V11.7727H1.59091C1.33784 11.7724 1.09521 11.6718 0.91626 11.4928C0.73731 11.3139 0.63665 11.0713 0.636364 10.8182V10.4991C0.911349 10.7065 1.24649 10.8185 1.59091 10.8182H17.5C17.8444 10.8185 18.1796 10.7065 18.4545 10.4991V10.8182C18.4543 11.0713 18.3536 11.3139 18.1746 11.4928C17.9957 11.6718 17.7531 11.7724 17.5 11.7727H12.4091V12.4091H17.5C17.8444 12.4094 18.1796 12.2974 18.4545 12.09V12.4091C18.4543 12.6622 18.3536 12.9048 18.1746 13.0837C17.9957 13.2627 17.7531 13.3633 17.5 13.3636ZM18.4545 9.22727C18.4543 9.48034 18.3536 9.72297 18.1746 9.90192C17.9957 10.0809 17.7531 10.1815 17.5 10.1818H1.59091C1.33784 10.1815 1.09521 10.0809 0.916263 9.90192C0.737314 9.72297 0.636653 9.48034 0.636364 9.22727V1.59091C0.636653 1.33784 0.737314 1.09521 0.916263 0.916263C1.09521 0.737314 1.33784 0.636653 1.59091 0.636364H17.5C17.7531 0.636653 17.9957 0.737314 18.1746 0.916263C18.3536 1.09521 18.4543 1.33784 18.4545 1.59091V9.22727Z"/>
            <path d="M3.5 11.7727H4.13636V12.4091H3.5V11.7727Z" />
            <path d="M11.1364 11.7727H11.7727V12.4091H11.1364V11.7727Z"/>
            <path d="M3.5 2.22727V1.59091H2.86364V2.22727C2.86354 2.31163 2.82999 2.3925 2.77034 2.45215C2.71069 2.5118 2.62981 2.54536 2.54545 2.54545H1.90909V3.18182H2.54545C2.62981 3.18191 2.71069 3.21547 2.77034 3.27512C2.82999 3.33477 2.86354 3.41564 2.86364 3.5V4.77273C2.86354 4.85708 2.82999 4.93796 2.77034 4.99761C2.71069 5.05726 2.62981 5.09081 2.54545 5.09091H1.90909V5.72727H2.54545C2.62981 5.72737 2.71069 5.76092 2.77034 5.82057C2.82999 5.88022 2.86354 5.9611 2.86364 6.04545V7.31818C2.86354 7.40254 2.82999 7.48341 2.77034 7.54306C2.71069 7.60271 2.62981 7.63627 2.54545 7.63636H1.90909V8.27273H2.54545C2.62981 8.27282 2.71069 8.30638 2.77034 8.36603C2.82999 8.42568 2.86354 8.50655 2.86364 8.59091V9.22727H3.5V8.59091C3.5001 8.50655 3.53365 8.42568 3.5933 8.36603C3.65295 8.30638 3.73382 8.27282 3.81818 8.27273H4.45455V7.63636H3.81818C3.73382 7.63627 3.65295 7.60271 3.5933 7.54306C3.53365 7.48341 3.5001 7.40254 3.5 7.31818V6.04545C3.5001 5.9611 3.53365 5.88022 3.5933 5.82057C3.65295 5.76092 3.73382 5.72737 3.81818 5.72727H4.45455V5.09091H3.81818C3.73382 5.09081 3.65295 5.05726 3.5933 4.99761C3.53365 4.93796 3.5001 4.85708 3.5 4.77273V3.5C3.5001 3.41564 3.53365 3.33477 3.5933 3.27512C3.65295 3.21547 3.73382 3.18191 3.81818 3.18182H4.45455V2.54545H3.81818C3.73382 2.54536 3.65295 2.5118 3.5933 2.45215C3.53365 2.3925 3.5001 2.31163 3.5 2.22727Z"/>
            <path d="M6.68182 2.22727V1.59091H6.04545V2.22727C6.04536 2.31163 6.01181 2.3925 5.95216 2.45215C5.89251 2.5118 5.81163 2.54536 5.72727 2.54545H5.09091V3.18182H5.72727C5.81163 3.18191 5.89251 3.21547 5.95216 3.27512C6.01181 3.33477 6.04536 3.41564 6.04545 3.5V4.77273C6.04536 4.85708 6.01181 4.93796 5.95216 4.99761C5.89251 5.05726 5.81163 5.09081 5.72727 5.09091H5.09091V5.72727H5.72727C5.81163 5.72737 5.89251 5.76092 5.95216 5.82057C6.01181 5.88022 6.04536 5.9611 6.04545 6.04545V7.31818C6.04536 7.40254 6.01181 7.48341 5.95216 7.54306C5.89251 7.60271 5.81163 7.63627 5.72727 7.63636H5.09091V8.27273H5.72727C5.81163 8.27282 5.89251 8.30638 5.95216 8.36603C6.01181 8.42568 6.04536 8.50655 6.04545 8.59091V9.22727H6.68182V8.59091C6.68192 8.50655 6.71547 8.42568 6.77512 8.36603C6.83477 8.30638 6.91564 8.27282 7 8.27273H7.63636V7.63636H7C6.91564 7.63627 6.83477 7.60271 6.77512 7.54306C6.71547 7.48341 6.68192 7.40254 6.68182 7.31818V6.04545C6.68192 5.9611 6.71547 5.88022 6.77512 5.82057C6.83477 5.76092 6.91564 5.72737 7 5.72727H7.63636V5.09091H7C6.91564 5.09081 6.83477 5.05726 6.77512 4.99761C6.71547 4.93796 6.68192 4.85708 6.68182 4.77273V3.5C6.68192 3.41564 6.71547 3.33477 6.77512 3.27512C6.83477 3.21547 6.91564 3.18191 7 3.18182H7.63636V2.54545H7C6.91564 2.54536 6.83477 2.5118 6.77512 2.45215C6.71547 2.3925 6.68192 2.31163 6.68182 2.22727Z"/>
            <path d="M9.86364 2.22727V1.59091H9.22727V2.22727C9.22718 2.31163 9.19362 2.3925 9.13397 2.45215C9.07432 2.5118 8.99345 2.54536 8.90909 2.54545H8.27273V3.18182H8.90909C8.99345 3.18191 9.07432 3.21547 9.13397 3.27512C9.19362 3.33477 9.22718 3.41564 9.22727 3.5V4.77273C9.22718 4.85708 9.19362 4.93796 9.13397 4.99761C9.07432 5.05726 8.99345 5.09081 8.90909 5.09091H8.27273V5.72727H8.90909C8.99345 5.72737 9.07432 5.76092 9.13397 5.82057C9.19362 5.88022 9.22718 5.9611 9.22727 6.04545V7.31818C9.22718 7.40254 9.19362 7.48341 9.13397 7.54306C9.07432 7.60271 8.99345 7.63627 8.90909 7.63636H8.27273V8.27273H8.90909C8.99345 8.27282 9.07432 8.30638 9.13397 8.36603C9.19362 8.42568 9.22718 8.50655 9.22727 8.59091V9.22727H9.86364V8.59091C9.86373 8.50655 9.89729 8.42568 9.95694 8.36603C10.0166 8.30638 10.0975 8.27282 10.1818 8.27273H10.8182V7.63636H10.1818C10.0975 7.63627 10.0166 7.60271 9.95694 7.54306C9.89729 7.48341 9.86373 7.40254 9.86364 7.31818V6.04545C9.86373 5.9611 9.89729 5.88022 9.95694 5.82057C10.0166 5.76092 10.0975 5.72737 10.1818 5.72727H10.8182V5.09091H10.1818C10.0975 5.09081 10.0166 5.05726 9.95694 4.99761C9.89729 4.93796 9.86373 4.85708 9.86364 4.77273V3.5C9.86373 3.41564 9.89729 3.33477 9.95694 3.27512C10.0166 3.21547 10.0975 3.18191 10.1818 3.18182H10.8182V2.54545H10.1818C10.0975 2.54536 10.0166 2.5118 9.95694 2.45215C9.89729 2.3925 9.86373 2.31163 9.86364 2.22727Z" />
            <path d="M13.0455 2.22727V1.59091H12.4091V2.22727C12.409 2.31163 12.3754 2.3925 12.3158 2.45215C12.2561 2.5118 12.1753 2.54536 12.0909 2.54545H11.4545V3.18182H12.0909C12.1753 3.18191 12.2561 3.21547 12.3158 3.27512C12.3754 3.33477 12.409 3.41564 12.4091 3.5V4.77273C12.409 4.85708 12.3754 4.93796 12.3158 4.99761C12.2561 5.05726 12.1753 5.09081 12.0909 5.09091H11.4545V5.72727H12.0909C12.1753 5.72737 12.2561 5.76092 12.3158 5.82057C12.3754 5.88022 12.409 5.9611 12.4091 6.04545V7.31818C12.409 7.40254 12.3754 7.48341 12.3158 7.54306C12.2561 7.60271 12.1753 7.63627 12.0909 7.63636H11.4545V8.27273H12.0909C12.1753 8.27282 12.2561 8.30638 12.3158 8.36603C12.3754 8.42568 12.409 8.50655 12.4091 8.59091V9.22727H13.0455V8.59091C13.0456 8.50655 13.0791 8.42568 13.1388 8.36603C13.1984 8.30638 13.2793 8.27282 13.3636 8.27273H14V7.63636H13.3636C13.2793 7.63627 13.1984 7.60271 13.1388 7.54306C13.0791 7.48341 13.0456 7.40254 13.0455 7.31818V6.04545C13.0456 5.9611 13.0791 5.88022 13.1388 5.82057C13.1984 5.76092 13.2793 5.72737 13.3636 5.72727H14V5.09091H13.3636C13.2793 5.09081 13.1984 5.05726 13.1388 4.99761C13.0791 4.93796 13.0456 4.85708 13.0455 4.77273V3.5C13.0456 3.41564 13.0791 3.33477 13.1388 3.27512C13.1984 3.21547 13.2793 3.18191 13.3636 3.18182H14V2.54545H13.3636C13.2793 2.54536 13.1984 2.5118 13.1388 2.45215C13.0791 2.3925 13.0456 2.31163 13.0455 2.22727Z"/>
            <path d="M16.2273 2.22727V1.59091H15.5909V2.22727C15.5908 2.31163 15.5573 2.3925 15.4976 2.45215C15.438 2.5118 15.3571 2.54536 15.2727 2.54545H14.6364V3.18182H15.2727C15.3571 3.18191 15.438 3.21547 15.4976 3.27512C15.5573 3.33477 15.5908 3.41564 15.5909 3.5V4.77273C15.5908 4.85708 15.5573 4.93796 15.4976 4.99761C15.438 5.05726 15.3571 5.09081 15.2727 5.09091H14.6364V5.72727H15.2727C15.3571 5.72737 15.438 5.76092 15.4976 5.82057C15.5573 5.88022 15.5908 5.9611 15.5909 6.04545V7.31818C15.5908 7.40254 15.5573 7.48341 15.4976 7.54306C15.438 7.60271 15.3571 7.63627 15.2727 7.63636H14.6364V8.27273H15.2727C15.3571 8.27282 15.438 8.30638 15.4976 8.36603C15.5573 8.42568 15.5908 8.50655 15.5909 8.59091V9.22727H16.2273V8.59091C16.2274 8.50655 16.2609 8.42568 16.3206 8.36603C16.3802 8.30638 16.4611 8.27282 16.5455 8.27273H17.1818V7.63636H16.5455C16.4611 7.63627 16.3802 7.60271 16.3206 7.54306C16.2609 7.48341 16.2274 7.40254 16.2273 7.31818V6.04545C16.2274 5.9611 16.2609 5.88022 16.3206 5.82057C16.3802 5.76092 16.4611 5.72737 16.5455 5.72727H17.1818V5.09091H16.5455C16.4611 5.09081 16.3802 5.05726 16.3206 4.99761C16.2609 4.93796 16.2274 4.85708 16.2273 4.77273V3.5C16.2274 3.41564 16.2609 3.33477 16.3206 3.27512C16.3802 3.21547 16.4611 3.18191 16.5455 3.18182H17.1818V2.54545H16.5455C16.4611 2.54536 16.3802 2.5118 16.3206 2.45215C16.2609 2.3925 16.2274 2.31163 16.2273 2.22727Z"/>
            </svg>
            
    </symbol>
    <symbol viewBox="0 0 14 14" id="armchair">
        <svg width="14" height="14" viewBox="0 0 14 14" xmlns="http://www.w3.org/2000/svg">
            <path d="M13.9423 5.35062C13.771 4.6507 13.1804 4.08067 12.4728 3.93254C12.4144 3.92029 12.3562 3.92244 12.2977 3.91544C11.7713 1.63304 9.76471 0 7.38948 0H6.61165C4.23686 0 2.22997 1.63337 1.7033 3.91552C1.33113 3.96269 0.975552 4.10503 0.685198 4.35181C0.249922 4.72212 0 5.26214 0 5.83333C0 6.44135 0.293198 7.01557 0.777838 7.38092V10.8889C0.777838 11.4622 1.09295 11.9583 1.55568 12.2281V12.8333C1.55568 13.4767 2.07904 14 2.72245 14C3.36587 14 3.88923 13.4767 3.88923 12.8333V12.4444H10.112V12.8333C10.112 13.4767 10.6353 14 11.2787 14C11.9222 14 12.4455 13.4767 12.4455 12.8333V12.2281C12.9083 11.9583 13.2234 11.4622 13.2234 10.8889V7.38132C13.8451 6.91494 14.1318 6.12653 13.9423 5.35062ZM6.6111 0.777766H7.38886C9.35823 0.777766 11.0258 2.10561 11.5118 3.97567C11.2666 4.04713 11.0332 4.1588 10.8304 4.32334C10.3731 4.69474 10.1111 5.24504 10.1111 5.83333V7.77777H3.8889V5.91649C3.8889 5.00759 3.2993 4.21549 2.48861 3.97352C2.97496 2.10489 4.64264 0.777766 6.6111 0.777766ZM10.8889 8.94443C10.8889 9.15899 10.7146 9.33333 10.5 9.33333H3.5C3.28544 9.33333 3.1111 9.15903 3.1111 8.94443C3.1111 8.72987 3.28541 8.55553 3.5 8.55553H10.5C10.7146 8.55557 10.8889 8.72987 10.8889 8.94443ZM3.1111 12.8333C3.1111 13.0479 2.93679 13.2222 2.7222 13.2222C2.50764 13.2222 2.33333 13.0479 2.33333 12.8333V12.4444H3.1111V12.8333ZM11.6667 12.8333C11.6667 13.0479 11.4924 13.2222 11.2778 13.2222C11.0632 13.2222 10.8889 13.0479 10.8889 12.8333V12.4444H11.6667V12.8333ZM12.6377 6.83707C12.5181 6.90656 12.4444 7.03456 12.4444 7.17318V10.8889C12.4444 11.3177 12.0954 11.6667 11.6667 11.6667H2.33333C1.90458 11.6667 1.55557 11.3177 1.55557 10.8889V7.17318C1.55557 7.03493 1.48189 6.90696 1.36227 6.83707C0.996151 6.62404 0.777766 6.24881 0.777766 5.83333C0.777766 5.49077 0.927792 5.16644 1.18905 4.9443C1.45414 4.71869 1.79404 4.62605 2.14306 4.683C2.69485 4.77261 3.1111 5.30316 3.1111 5.91649V7.84941C2.65942 8.01048 2.33333 8.4381 2.33333 8.94443C2.33333 9.58778 2.85666 10.1111 3.5 10.1111H10.5C11.1433 10.1111 11.6667 9.58778 11.6667 8.94443C11.6667 8.4381 11.3406 8.01048 10.8889 7.84941V5.83333C10.8889 5.48012 11.0461 5.1501 11.3207 4.9272C11.5991 4.70123 11.9512 4.61807 12.3123 4.69365C12.7331 4.78177 13.084 5.12014 13.1854 5.53521C13.3134 6.05817 13.0984 6.56895 12.6377 6.83707Z" />
            </svg>
            
    </symbol>
    <symbol viewBox="0 0 12 14" id="cupboard">
        <svg width="12" height="14" viewBox="0 0 12 14" xmlns="http://www.w3.org/2000/svg">
            <path d="M10.5273 13.0977H1.23047C0.551988 13.0977 0 12.5457 0 11.8672V1.23047C0 0.551988 0.551988 0 1.23047 0H10.5273C11.2058 0 11.7578 0.551988 11.7578 1.23047V11.8672C11.7578 12.5457 11.2058 13.0977 10.5273 13.0977ZM1.23047 0.820312C1.00431 0.820312 0.820312 1.00431 0.820312 1.23047V11.8672C0.820312 12.0933 1.00431 12.2773 1.23047 12.2773H10.5273C10.7535 12.2773 10.9375 12.0933 10.9375 11.8672V1.23047C10.9375 1.00431 10.7535 0.820312 10.5273 0.820312H1.23047Z"/>
            <path d="M2.37891 14C2.15239 14 1.96875 13.8164 1.96875 13.5898V12.6875C1.96875 12.461 2.15239 12.2773 2.37891 12.2773C2.60542 12.2773 2.78906 12.461 2.78906 12.6875V13.5898C2.78906 13.8164 2.60542 14 2.37891 14Z"/>
            <path d="M9.37891 14C9.15239 14 8.96875 13.8164 8.96875 13.5898V12.6875C8.96875 12.461 9.15239 12.2773 9.37891 12.2773C9.60542 12.2773 9.78906 12.461 9.78906 12.6875V13.5898C9.78906 13.8164 9.60542 14 9.37891 14Z"/>
            <path d="M5.87891 13.0977C5.65239 13.0977 5.46875 12.914 5.46875 12.6875V0.410156C5.46875 0.183641 5.65239 0 5.87891 0C6.10542 0 6.28906 0.183641 6.28906 0.410156V12.6875C6.28906 12.914 6.10542 13.0977 5.87891 13.0977Z"/>
            <path d="M11.3477 9.59766H5.87891C5.65239 9.59766 5.46875 9.41402 5.46875 9.1875C5.46875 8.96098 5.65239 8.77734 5.87891 8.77734H11.3477C11.5742 8.77734 11.7578 8.96098 11.7578 9.1875C11.7578 9.41402 11.5742 9.59766 11.3477 9.59766Z"/>
            <path d="M8.94141 11.375H8.28516C8.05864 11.375 7.875 11.1914 7.875 10.9648C7.875 10.7383 8.05864 10.5547 8.28516 10.5547H8.94141C9.16792 10.5547 9.35156 10.7383 9.35156 10.9648C9.35156 11.1914 9.16792 11.375 8.94141 11.375Z"/>
            <path d="M4.12891 6.97266C3.90239 6.97266 3.71875 6.78902 3.71875 6.5625V5.90625C3.71875 5.67973 3.90239 5.49609 4.12891 5.49609C4.35542 5.49609 4.53906 5.67973 4.53906 5.90625V6.5625C4.53906 6.78902 4.35542 6.97266 4.12891 6.97266Z"/>
            <path d="M7.62891 6.97266C7.40239 6.97266 7.21875 6.78902 7.21875 6.5625V5.90625C7.21875 5.67973 7.40239 5.49609 7.62891 5.49609C7.85542 5.49609 8.03906 5.67973 8.03906 5.90625V6.5625C8.03906 6.78902 7.85542 6.97266 7.62891 6.97266Z"/>
            </svg>
            
    </symbol>
    <symbol id="black-phone" viewBox="0 0 16 16" xmlns="http://www.w3.org/2000/svg">
      <svg width="16" height="16" viewBox="0 0 16 16" fill="none" xmlns="http://www.w3.org/2000/svg">
      <path d="M5.21922 1H3C1.89543 1 1 1.89543 1 3V5C1 10.5228 5.47715 15 11 15H13C14.1046 15 15 14.1046 15 13V11.618C15 11.2393 14.786 10.893 14.4472 10.7236L12.0313 9.51564C11.487 9.24349 10.8278 9.51652 10.6354 10.0938L10.3376 10.9871C10.1447 11.5658 9.55118 11.9102 8.95309 11.7906C6.55929 11.3119 4.68814 9.44071 4.20938 7.04691C4.08976 6.44882 4.43422 5.85526 5.01286 5.66238L6.12149 5.29284C6.61721 5.1276 6.90214 4.60855 6.7754 4.10162L6.18937 1.75746C6.07807 1.3123 5.67809 1 5.21922 1Z" stroke="black"/>
      </svg>
      </symbol>

  <symbol id="footer-logo" viewBox="0 0 56 30" xmlns="http://www.w3.org/2000/svg"> 
      <svg width="56" height="30" viewBox="0 0 56 30" fill="none" xmlns="http://www.w3.org/2000/svg">
      <path d="M7.4541 24.4629H19.9844V30H0.255859V0.140625H7.4541V24.4629ZM32.4736 0.140625L39.1387 20.915L45.7832 0.140625H55.2578V30H48.0391V23.0273L48.7363 8.75391L41.5176 30H36.7598L29.5205 8.7334L30.2178 23.0273V30H23.0195V0.140625H32.4736Z" fill="black"/>
    </svg>
  </symbol>

  <symbol id="insta" viewBox="0 0 17 17" xmlns="http://www.w3.org/2000/svg">
      <svg width="17" height="17" viewBox="0 0 17 17" fill="none" xmlns="http://www.w3.org/2000/svg">
      <path d="M12.25 4.21429H13.3214M5.28571 1H11.7143C14.0812 1 16 2.91878 16 5.28571V11.7143C16 14.0812 14.0812 16 11.7143 16H5.28571C2.91878 16 1 14.0812 1 11.7143V5.28571C1 2.91878 2.91878 1 5.28571 1ZM8.5 11.7143C6.7248 11.7143 5.28571 10.2752 5.28571 8.5C5.28571 6.7248 6.7248 5.28571 8.5 5.28571C10.2752 5.28571 11.7143 6.7248 11.7143 8.5C11.7143 10.2752 10.2752 11.7143 8.5 11.7143Z" stroke="black"/>
      </svg>
  </symbol>

  <symbol id="mail" viewBox="0 0 18 16" xmlns="http://www.w3.org/2000/svg">
      <svg width="18" height="16" viewBox="0 0 18 16" fill="none" xmlns="http://www.w3.org/2000/svg">
      <path d="M1 4.5L9.16667 9.16667L17.3333 4.5M2.16667 1H16.1667C16.811 1 17.3333 1.52233 17.3333 2.16667V13.8333C17.3333 14.4777 16.811 15 16.1667 15H2.16667C1.52233 15 1 14.4777 1 13.8333V2.16667C1 1.52233 1.52233 1 2.16667 1Z" stroke="black"/>
      </svg>
  </symbol>
  <symbol id="rating" viewBox="0 0 15 15" xmlns="http://www.w3.org/2000/svg">
      <svg width="15" height="15" viewBox="0 0 15 15" fill="none" xmlns="http://www.w3.org/2000/svg">
      <path d="M7.94838 0.278719C7.86415 0.10805 7.69034 0 7.50001 0C7.30969 0 7.13587 0.10805 7.05165 0.278719L5.00476 4.42621L0.42816 5.09081C0.239806 5.11816 0.0833166 5.25008 0.0244934 5.43109C-0.0343298 5.6121 0.0147161 5.81081 0.151008 5.94366L3.46277 9.17185L2.68076 13.7306C2.64858 13.9182 2.72569 14.1078 2.87966 14.2196C3.03364 14.3315 3.23778 14.3463 3.40624 14.2577L7.50001 12.1054L11.5938 14.2577C11.7623 14.3463 11.9664 14.3315 12.1204 14.2196C12.2743 14.1078 12.3515 13.9182 12.3193 13.7306L11.5373 9.17185L14.849 5.94366C14.9853 5.81081 15.0344 5.6121 14.9755 5.43109C14.9167 5.25008 14.7602 5.11816 14.5719 5.09081L9.99527 4.42621L7.94838 0.278719Z" fill="#D1D1D1"/>
      </svg>
  </symbol>
</svg>
